<?xml version="1.0" encoding="UTF-8" standalone="no"?>
<svg width="131px" height="42px" viewBox="0 0 131 42" version="1.1" xmlns="http://www.w3.org/2000/svg" xmlns:xlink="http://www.w3.org/1999/xlink">
<g fill="#7581A0">
    <path d="M127.222551,24.137931 L127.222551,26.2862069 L126.786691,26.2862069 L126.786691,24.137931 L126.084473,24.137931 L126.084473,23.7517241 L127.924769,23.7517241 L127.924769,24.137931 L127.222551,24.137931 Z"></path>
    <path d="M130.39464,24.7413793 L130.152495,25.2241379 L129.789279,25.9241379 L129.474492,25.9241379 L129.13549,25.2724138 L128.869131,24.7413793 L128.844917,24.7413793 L128.844917,26.2862069 L128.433272,26.2862069 L128.433272,23.7517241 L128.820702,23.7517241 L129.304991,24.7172414 L129.619778,25.3689655 L129.643993,25.3689655 L129.95878,24.7172414 L130.443068,23.7517241 L130.830499,23.7517241 L130.830499,26.2862069 L130.39464,26.2862069 L130.39464,24.7413793 L130.39464,24.7413793 Z"></path>
    <path d="M2.71201479,21.2896552 L6.19889094,21.2896552 C7.14325323,21.2896552 10.2184843,21.5551724 10.2184843,25.1275862 L10.2184843,30.437931 C10.2184843,33.262069 8.13604436,34.2758621 6.19889094,34.2758621 L2.71201479,34.2758621 L2.71201479,21.2896552 L2.71201479,21.2896552 Z M6.75582255,18.8517241 L0.0484288355,18.8517241 L0.0484288355,36.6896552 L6.73160813,36.6896552 C10.2426987,36.6896552 12.9062847,34.1793103 12.9062847,30.8482759 L12.9062847,24.7413793 C12.9062847,21.2655172 10.3879852,18.8517241 6.75582255,18.8517241 L6.75582255,18.8517241 Z"></path>
    <path d="M29.0815157,33.1655172 C27.8950092,33.9137931 26.4421442,34.4206897 25.449353,34.4206897 L25.3767098,34.4206897 C24.0207024,34.4206897 23.3426987,33.5758621 23.3426987,31.9103448 L23.3426987,28.6034483 C23.3426987,26.8655172 23.996488,26.0689655 25.449353,26.0689655 C26.3937153,26.0689655 27.8707948,26.6724138 29.0815157,27.5413793 L29.0815157,33.1655172 L29.0815157,33.1655172 Z M29.1299445,25.0068966 C27.5802218,24.0413793 26.3695009,23.6310345 25.2556377,23.6310345 C22.5920518,23.6310345 20.8728281,25.4655172 20.8728281,28.2896552 L20.8728281,32.1758621 C20.8728281,35 22.5920518,36.8103448 25.2556377,36.8103448 C26.0789279,36.8103448 27.4107209,36.5931034 29.0815157,35.6034483 L29.0815157,36.8103448 C29.0815157,39.4172414 26.7327172,39.6103448 26.0062847,39.6103448 C25.1103512,39.6103448 23.6817006,39.1517241 22.9068392,38.4275862 L22.7857671,38.3068966 L21.2360444,40.1413793 L21.3571165,40.237931 C22.5678373,41.3241379 24.287061,41.9275862 26.0304991,41.9275862 C28.7909427,41.9275862 31.5756007,40.3344828 31.5756007,37.2689655 L31.5756007,23.7275862 L29.3720887,23.7275862 L29.1299445,25.0068966 L29.1299445,25.0068966 Z"></path>
    <path d="M56.6375231,31.0655172 L56.6375231,33.2137931 C55.4752311,33.8655172 54.1192237,34.5172414 52.9569316,34.5172414 C51.649353,34.5172414 50.8744917,33.8896552 50.8744917,32.8275862 C50.8744917,31.6206897 51.7219963,31.0413793 53.44122,31.0413793 L56.6375231,31.0413793 L56.6375231,31.0655172 Z M54.0950092,23.6310345 C52.1578558,23.6310345 50.5597043,24.137931 49.2036969,25.1758621 L49.0826248,25.2482759 L50.3175601,27.1551724 L50.4386322,27.0586207 C51.3829945,26.2862069 52.4968577,25.9241379 53.9012939,25.9241379 C55.7900185,25.9241379 56.6133087,26.5758621 56.6133087,28.1448276 L56.6133087,28.9655172 L53.0537893,28.9655172 C51.2134935,28.9655172 48.3077634,30.0275862 48.3077634,32.8517241 C48.3077634,35.2413793 49.9543438,36.7862069 52.4968577,36.7862069 C53.44122,36.7862069 54.5792976,36.6413793 56.6375231,35.5068966 L56.9038817,36.6896552 L59.0831793,36.6896552 L59.0831793,28.1931034 C59.1073937,25.1275862 57.4608133,23.6310345 54.0950092,23.6310345 L54.0950092,23.6310345 Z"></path>
    <path d="M74.192976,27.3724138 L77.849353,29.1344828 L77.849353,33.4310345 C76.9534196,34.0827586 75.9121996,34.3965517 74.6288355,34.3965517 C72.7158965,34.3965517 70.657671,33.3827586 70.657671,30.5103448 L70.657671,25.0310345 C70.657671,22.1586207 72.8127542,21.1206897 74.8225508,21.1206897 C76.1301294,21.1206897 77.6072089,21.6034483 78.4789279,22.3275862 L78.6,22.4482759 L79.931793,20.3482759 L79.8349353,20.2758621 C78.5031423,19.2137931 76.8081331,18.6586207 74.7983364,18.6586207 C70.8271719,18.6586207 67.9698706,21.1206897 67.9698706,24.5241379 L67.9698706,30.9448276 C67.9698706,34.8310345 71.3114603,36.8586207 74.6046211,36.8586207 C76.9534196,36.8586207 79.1327172,35.9896552 80.4160813,34.5172414 L80.4645102,34.4689655 L80.4645102,27.3724138 L74.192976,27.3724138 L74.192976,27.3724138 Z"></path>
    <path d="M94.3151571,34.4689655 C92.9833641,34.4689655 91.409427,33.9862069 91.409427,31.6448276 L91.409427,28.7965517 C91.409427,26.6965517 92.9833641,25.9724138 94.3151571,25.9724138 C95.6469501,25.9724138 97.1966728,26.7206897 97.1966728,28.7965517 L97.1966728,31.6448276 C97.2208872,33.7448276 95.6469501,34.4689655 94.3151571,34.4689655 M94.2909427,23.6310345 C91.118854,23.6310345 88.915342,25.5862069 88.915342,28.4103448 L88.915342,32.0793103 C88.915342,34.9034483 91.0704251,36.8103448 94.2667283,36.8103448 C97.4630314,36.8103448 99.6665434,34.8551724 99.6665434,32.0793103 L99.6665434,28.4103448 C99.6907579,25.5137931 97.5598891,23.6310345 94.2909427,23.6310345"></path>
    <path d="M104.388355,27.5655172 C105.962292,26.5758621 107.197227,26.0689655 108.044732,26.0689655 C109.473383,26.0689655 110.151386,26.8655172 110.151386,28.5551724 L110.151386,31.8862069 C110.151386,33.5517241 109.449168,34.4206897 108.044732,34.4206897 C107.076155,34.4206897 105.429575,33.8413793 104.388355,33.1413793 L104.388355,27.5655172 L104.388355,27.5655172 Z M108.311091,23.6310345 C107.536229,23.6310345 106.519224,23.8 104.36414,24.9827586 L104.36414,18.8517241 L101.870055,18.8517241 L101.870055,36.6896552 L104.073567,36.6896552 L104.315712,35.5793103 C106.204436,36.6655172 107.366728,36.8103448 108.190018,36.8103448 C110.877819,36.8103448 112.597043,34.9758621 112.597043,32.1517241 L112.597043,28.2896552 C112.621257,25.2724138 111.095749,23.6310345 108.311091,23.6310345 L108.311091,23.6310345 Z"></path>
    <path d="M120.006654,25.9482759 C121.750092,25.9482759 122.742884,26.9862069 122.742884,28.7724138 L122.742884,29.1103448 L117.270425,29.1103448 L117.270425,28.7 C117.270425,26.6724138 118.747505,25.9482759 120.006654,25.9482759 L120.006654,25.9482759 Z M125.261183,31.1862069 L125.261183,28.5310345 C125.261183,25.6103448 123.154529,23.6551724 120.006654,23.6551724 C116.85878,23.6551724 114.752126,25.6827586 114.752126,28.7241379 L114.752126,32.0551724 C114.752126,34.9517241 116.907209,36.8103448 120.20037,36.8103448 C122.137523,36.8103448 123.687246,36.2068966 124.849538,35.0241379 L124.946396,34.9275862 L123.372458,33.2137931 L123.251386,33.3103448 C122.137523,34.3482759 120.878373,34.5172414 120.248799,34.5172414 C119.54658,34.5172414 117.221996,34.3241379 117.221996,31.862069 L117.221996,31.162069 L125.261183,31.162069 L125.261183,31.1862069 Z"></path>
    <rect x="15.6425139" y="23.7517241" width="2.46987061" height="12.9137931"></rect>
    <path d="M16.8774492,18.6586207 C16.1025878,18.6586207 15.4487985,19.3103448 15.4487985,20.0827586 C15.4487985,20.8551724 16.1268022,21.5310345 16.8774492,21.5310345 C17.676525,21.5310345 18.3303142,20.8793103 18.3303142,20.0827586 C18.3303142,19.3103448 17.6523105,18.6586207 16.8774492,18.6586207"></path>
    <rect x="34.432902" y="23.7517241" width="2.46987061" height="12.9137931"></rect>
    <path d="M35.6678373,18.6586207 C34.892976,18.6586207 34.2391867,19.3103448 34.2391867,20.0827586 C34.2391867,20.8551724 34.9171904,21.5310345 35.6678373,21.5310345 C36.4669131,21.5310345 37.1207024,20.8793103 37.1207024,20.0827586 C37.1207024,19.3103448 36.4426987,18.6586207 35.6678373,18.6586207"></path>
    <path d="M66.1780037,34.4448276 L66.0327172,34.4448276 L65.6452865,34.4448276 C64.6040665,34.4448276 64.2408503,34.2517241 64.2408503,33.1655172 L64.2408503,18.8517241 L61.7709797,18.8517241 L61.7709797,33.4551724 C61.7709797,35.4827586 62.2794824,36.8344828 64.7977819,36.8344828 C65.2336414,36.8344828 65.6452865,36.8103448 66.1053604,36.737931 L66.1780037,36.737931 L66.1780037,34.4448276 L66.1780037,34.4448276 Z"></path>
    <path d="M87.583549,34.4448276 L87.4382625,34.4448276 L87.0508318,34.4448276 C86.0096118,34.4448276 85.6463956,34.2517241 85.6463956,33.1655172 L85.6463956,18.8517241 L83.176525,18.8517241 L83.176525,33.4551724 C83.176525,35.4827586 83.6850277,36.8344828 86.2033272,36.8344828 C86.6391867,36.8344828 87.0508318,36.8103448 87.5109057,36.737931 L87.583549,36.737931 L87.583549,34.4448276 L87.583549,34.4448276 Z"></path>
    <path d="M46.8064695,34.2517241 C46.1768946,34.3241379 45.5957486,34.4206897 45.1356747,34.4206897 C44.0702403,34.4206897 43.3922366,34.0103448 43.3922366,32.0310345 L43.3922366,26.0206897 L46.8064695,26.0206897 L46.8064695,23.7517241 L43.3922366,23.7517241 L43.3922366,20.8310345 L41.5519409,20.8310345 L41.0676525,23.7517241 L39.2515712,23.7517241 L39.2515712,26.0206897 L40.9950092,26.0206897 L40.9950092,32.6827586 C40.9950092,35.5793103 42.1330869,36.8103448 44.8451017,36.8103448 C45.1598891,36.8103448 45.9831793,36.762069 46.8306839,36.5689655 L46.8306839,34.2517241 L46.8064695,34.2517241 Z"></path>
    <path d="M87.6077634,3.78965517 C86.1791128,2.60689655 84.2177449,2.43793103 82.0868762,3.04137931 C85.7432532,1.30344828 89.3996303,1.23103448 91.7726433,3.21034483 C92.6685767,3.95862069 93.2739372,4.9 93.6855823,6.03448276 C94.4120148,8.0862069 94.2667283,10.7655172 93.4434381,13.2758621 C93.2981516,13.6862069 93.1286506,14.0965517 93.1286506,14.4586207 C93.1528651,14.8448276 93.2255083,15.2068966 93.4918669,15.5931034 C93.7582255,15.9793103 94.3151571,16.3896552 95.0415896,16.3896552 C95.7922366,16.3896552 96.3007394,16.0034483 96.567098,15.6655172 C96.8334566,15.3275862 96.8818854,15.1103448 97.0513863,14.5551724 C97.3177449,13.7103448 97.5356747,12.8655172 97.6809612,12.0206897 C97.8020333,11.2965517 97.8746765,10.5724138 97.8988909,9.87241379 C106.495009,10.7413793 114.873198,12.3586207 122.960813,14.6517241 L122.379667,14.0724138 C114.582625,11.0310345 106.325508,8.85862069 97.7778189,7.67586207 C97.6083179,6.54137931 97.2935305,5.50344828 96.8334566,4.56206897 C96.3491682,3.62068966 95.6953789,2.8 94.8963031,2.1 C90.3197782,-1.73793103 82.0626617,0.410344828 76.0090573,6.87931034 C64.5072089,7.60344828 53.4896488,10.0896552 43.2469501,14.0965517 L42.6900185,14.6517241 C47.0243993,13.4206897 54.4582255,11.4896552 64.9672828,10.1862069 C78.3336414,8.56896552 88.6005545,9.24482759 89.2785582,9.24482759 C89.5207024,7.19310345 89.1332717,5.04482759 87.6077634,3.78965517 M76.8565619,6.83103448 C79.8107209,4.10344828 83.176525,3.06551724 84.9441774,4.56206897 C85.5495379,5.06896552 85.8885397,5.81724138 85.9853974,6.71034483 C84.919963,6.6862069 83.8787431,6.66206897 82.8133087,6.66206897 C80.8277264,6.66206897 78.8421442,6.71034483 76.8565619,6.83103448"></path>
</g>
</svg>
