<?xml version="1.0" encoding="UTF-8" standalone="no"?>
<svg width="109px" height="30px" viewBox="0 0 109 30" version="1.1" xmlns="http://www.w3.org/2000/svg" xmlns:xlink="http://www.w3.org/1999/xlink" xmlns:sketch="http://www.bohemiancoding.com/sketch/ns">
    <!-- Generator: Sketch 3.5.1 (25234) - http://www.bohemiancoding.com/sketch -->
    <title>gopro</title>
    <desc>Created with Sketch.</desc>
    <defs></defs>
    <g id="Page-1" stroke="none" stroke-width="1" fill="none" fill-rule="evenodd" sketch:type="MSPage">
        <g id="Desktop-HD" sketch:type="MSArtboardGroup" transform="translate(-1185.000000, -1378.000000)" fill="#7581A0">
            <g id="Group" sketch:type="MSLayerGroup" transform="translate(36.000000, 1368.000000)">
                <g id="gopro" transform="translate(1137.000000, 0.000000)" sketch:type="MSShapeGroup">
                    <g id="Group">
                        <path d="M35.9499705,21.7466743 C35.9499705,23.1101779 35.1063562,24.1233019 33.4193929,24.7881728 C32.1091095,25.306033 30.5113389,25.5676215 28.6247539,25.5676215 L20.8915338,25.5676215 C18.8637269,25.5676215 17.1608364,25.3315538 15.7772876,24.8647353 C13.8755716,24.2245877 12.9220591,23.202691 12.9220591,21.7969184 L12.9220591,14.2781087 C12.9220591,12.9273655 13.8914989,11.9299262 15.8354221,11.2826009 C17.37028,10.7985026 19.0625523,10.5541938 20.9175483,10.5541938 L23.9880603,10.5541938 C24.8160129,10.5541938 25.2298564,10.9242459 25.2298564,11.6651476 C25.2298564,12.4095052 24.8160129,12.7840766 23.9880603,12.7840766 L23.0502096,12.7840766 C22.9610169,12.7840766 22.9089878,12.7808865 22.8981042,12.7715821 C22.662646,12.7638726 22.4526715,12.7601509 22.2695079,12.7558974 C22.0858134,12.7513781 21.9342389,12.7471246 21.8243407,12.7471246 C18.1618651,12.7471246 16.3275746,13.2556804 16.3275746,14.2730578 L16.3275746,21.7849556 C16.3275746,22.8033963 17.862698,23.3132813 20.93321,23.3132813 L28.6303284,23.3132813 C29.3637791,23.3132813 30.1497899,23.2037544 30.9777424,22.9804471 C32.0204477,22.6994521 32.5439239,22.324349 32.5439239,21.84477 L32.5439239,20.2473254 L27.7583105,20.2473254 C27.1270597,20.2473254 26.6102198,19.7063369 26.6102198,19.0446561 C26.6102198,18.3821778 27.1270597,17.8409235 27.7583105,17.8409235 L33.5128329,17.8409235 C33.803771,17.8108833 34.2205346,17.8143393 34.7556908,17.8143393 C35.5520543,17.8143393 35.9499705,18.134413 35.9499705,18.7780166 L35.9499705,21.7466743" id="Shape"></path>
                        <path d="M56.0448754,21.8224393 L56.0448754,17.2725532 C56.0448754,16.3375868 54.7245048,15.8569444 52.0524399,15.8569444 L46.7709573,15.8569444 C45.7962084,15.8569444 44.9159614,15.9582303 44.1296852,16.1602702 C43.0293763,16.4646593 42.4950165,16.89426 42.4950165,17.4745931 L42.4950165,21.8224392 C42.4950165,22.3783149 43.0609654,22.8084473 44.1612743,23.0609971 C44.9159614,23.2375163 45.7962085,23.3143445 46.802281,23.3143445 L52.0524399,23.3143445 C52.901098,23.3143445 53.7181668,23.2130587 54.4728539,23.0354763 C55.5105155,22.7582032 56.0448754,22.3533257 56.0448754,21.8224393 L56.0448754,21.8224393 Z M59.3144783,21.8224393 C59.3144783,23.1878038 58.4968785,24.1732802 56.8306206,24.7807292 C55.6676645,25.2613716 54.0953776,25.5139215 52.1464107,25.5139215 L46.7709573,25.5139215 C44.9788741,25.5139215 43.3752635,25.2613716 41.9290675,24.7807292 C40.1372497,24.1482911 39.2570026,23.162283 39.2570026,21.8224393 L39.2570026,17.4745931 C39.2570026,16.1602702 40.1372496,15.1498048 41.8980093,14.4676541 C43.2181145,13.9357043 44.8211941,13.6839519 46.7393682,13.6839519 L52.1464107,13.6839519 C56.9251225,13.6839519 59.3144783,14.9227757 59.3144783,17.4506674 L59.3144783,21.8224393 L59.3144783,21.8224393 Z" id="Shape"></path>
                        <path d="M98.5016664,14.8964572 C98.5016664,15.5536187 97.9983646,15.8824653 97.0554703,15.8824653 C96.9296449,15.8824653 96.7411722,15.8824653 96.4895213,15.8569444 L95.8917178,15.8569444 C93.4081256,15.8569444 92.1817258,16.3375868 92.1817258,17.3488498 L92.1817258,24.5276476 C92.1817258,25.00829 91.9311368,25.3113498 91.4910133,25.4378907 C91.3014788,25.4889323 90.8305625,25.5139214 90.0761408,25.5139214 C89.3211882,25.5139214 88.9442428,25.184809 88.9442428,24.5276476 L88.9442428,17.3488498 C88.9442428,15.7811795 89.9189918,14.7446615 91.8998131,14.1893175 C93.0943583,13.8344184 94.8861761,13.6828884 97.2763283,13.6828884 C98.0939283,13.6834201 98.5016664,14.0875 98.5016664,14.8964572" id="Shape"></path>
                        <path d="M117.52732,21.8224393 L117.52732,17.2725532 C117.52732,16.3375868 116.20695,15.8569444 113.535416,15.8569444 L108.253933,15.8569444 C107.278654,15.8569444 106.398937,15.9582303 105.612661,16.1602702 C104.512618,16.4646593 103.978523,16.89426 103.978523,17.4745931 L103.978523,21.8224392 C103.978523,22.3783149 104.544472,22.8084473 105.643985,23.0609971 C106.398937,23.2375163 107.278654,23.3143445 108.283133,23.3143445 L113.534885,23.3143445 C114.383278,23.3143445 115.199816,23.2130587 115.954768,23.0354763 C116.992695,22.7582032 117.52732,22.3533257 117.52732,21.8224393 L117.52732,21.8224393 Z M120.796658,21.8224393 C120.796658,23.1878038 119.979058,24.1732802 118.313597,24.7807292 C117.150375,25.2613716 115.577823,25.5139215 113.629387,25.5139215 L108.253933,25.5139215 C106.461054,25.5139215 104.85824,25.2613716 103.412574,24.7807292 C101.619695,24.1482911 100.739979,23.162283 100.739979,21.8224393 L100.739979,17.4745931 C100.739979,16.1602702 101.619695,15.1498048 103.380189,14.4676541 C104.701091,13.9357043 106.303905,13.6839519 108.221548,13.6839519 L113.628325,13.6839519 C118.406506,13.6839519 120.796658,14.9227757 120.796658,17.4506674 L120.796658,21.8224393 L120.796658,21.8224393 Z" id="Shape"></path>
                        <path d="M82.6115607,15.9997016 L82.6115607,13.9513889 C82.6115607,13.0921875 81.1303246,12.637066 78.1694453,12.637066 L66.102946,12.637066 L66.102946,17.8451769 L78.1694453,17.8451769 C81.1303246,17.8451769 82.6115607,17.2127387 82.6115607,15.9997016 L82.6115607,15.9997016 Z M86.0141563,16.1004557 C86.0141563,17.5920953 85.0696692,18.6788574 83.2104259,19.3626031 C81.7610444,19.8424479 80.0276266,20.0700087 77.9809725,20.0700087 L66.102946,20.0700087 L66.102946,24.4702257 C66.102946,24.9498047 65.8823533,25.2528646 65.3782552,25.3794054 C65.2521643,25.4304471 64.7483317,25.4559679 63.8975501,25.4559679 C63.1096811,25.4559679 62.7003503,25.1273872 62.7003503,24.4702257 L62.7003503,11.3729872 C62.7003503,10.7402832 63.1096812,10.4114366 63.8975501,10.4114366 L78.1381216,10.4114366 C80.0600121,10.4114366 81.6983972,10.6389974 83.0522151,11.0441407 C85.0378147,11.6499946 86.0141563,12.5605035 86.0141563,13.749349 L86.0141563,16.1004557 L86.0141563,16.1004557 L86.0141563,16.1004557 Z" id="Shape"></path>
                        <path d="M49.668924,34.2755425 C49.5245168,34.8816623 49.6365386,35.5919922 49.7788221,35.8567708 C49.9213712,36.1199544 50.3867129,36.3554904 50.7400328,36.3554904 C51.1026437,36.3554904 51.6192181,36.1842882 51.879629,35.9258897 C52.1411016,35.6674913 52.5021197,35.0486111 52.6619233,34.3776259 C52.797836,33.8129774 52.6961669,33.2759765 52.5509633,33.014388 C52.4052288,32.7543945 51.9714761,32.4061415 51.6136435,32.4061415 C51.2733308,32.4061415 50.72384,32.5624566 50.4536074,32.8267035 C50.1849675,33.0909505 49.8157203,33.6651693 49.668924,34.2755425 M48.1157498,34.3276476 C48.350677,33.3482856 48.9460914,32.5379991 49.5738913,31.9935547 C50.2030184,31.4480469 51.0092037,31.33852 51.8968835,31.33852 C52.8076579,31.33852 53.4739486,31.7122938 53.8389485,32.248763 C54.203683,32.7836372 54.4035702,33.5152344 54.1720939,34.4802409 C54.0040613,35.1820638 53.7192286,35.738737 53.3969668,36.1858833 C53.0744396,36.6346246 52.6313961,36.9169488 52.1649925,37.1668403 C51.6975271,37.4167318 51.1424618,37.473622 50.5345711,37.473622 C49.9173894,37.473622 49.4321386,37.3662218 49.0785532,37.1498264 C48.7262951,36.9344944 48.318026,36.5942166 48.1778661,36.1268663 C48.038768,35.6611111 47.9477171,35.0294705 48.1157498,34.3276476" id="Shape"></path>
                        <path d="M41.9030529,37.2944444 L43.1963472,31.431033 L45.8814193,31.4406033 C45.9390229,31.4406033 47.8593207,31.3427734 47.7650844,32.9707899 C47.697659,34.1553819 47.1781646,34.2883029 46.1351938,34.8385959 C46.6599973,35.7121528 46.8410373,36.1826931 47.5346699,37.2949761 L45.7863867,37.2949761 C45.5923394,36.7393663 44.7588124,35.1687717 44.7545651,35.1687717 L43.8493653,35.1586697 L43.3898636,37.3029514 L41.9030529,37.2944444 L41.9030529,37.2944444 Z M44.1400379,34.1011502 L45.1697359,34.1011502 C46.1251066,34.1011502 46.5795646,32.6007378 45.5872958,32.5847873 L44.509816,32.5645833 L44.1400379,34.1011502 L44.1400379,34.1011502 Z" id="Shape"></path>
                        <path d="M38.1272282,31.4501736 L42.342911,31.4693143 L42.1220529,32.5486328 L39.4000825,32.5677735 L39.1532099,33.6077474 L41.6888312,33.6173177 L41.4523112,34.7349175 L38.8590863,34.7349175 L38.5567336,36.2225694 L41.2463185,36.1757812 L41.0835949,37.3125217 L36.8145558,37.2646701 L38.1272282,31.4501736 Z" id="Shape"></path>
                        <path d="M31.8056951,31.431033 L33.3432075,31.4406033 L32.8207931,33.5779731 L35.0333562,33.635395 L35.5079888,31.4501736 L37.0346176,31.4693143 L35.702036,37.2944444 L34.18576,37.3029514 L34.7671054,34.7434245 L32.5542767,34.7242839 L31.9437314,37.3029514 L30.4346226,37.2944444 L31.8056951,31.431033 Z" id="Shape"></path>
                        <path d="M54.2193449,37.2859375 L55.6172282,37.2859375 L56.0026681,35.7600043 L54.6047848,35.7600043 L54.2193449,37.2859375 Z" id="Shape"></path>
                        <rect id="Rectangle-path" x="59.8254782" y="29.2085937" width="12.9610809" height="9.92494575"></rect>
                        <rect id="Rectangle-path" x="75.4591549" y="29.2085937" width="12.9616118" height="9.92494575"></rect>
                        <rect id="Rectangle-path" x="91.1958279" y="29.2075304" width="12.96055" height="9.92441405"></rect>
                        <rect id="Rectangle-path" x="107.263788" y="29.2085937" width="12.9616118" height="9.92494575"></rect>
                        <path d="M25.0421801,34.6285807 L26.0458636,34.6285807 C26.03498,34.2824544 26.2813217,34.1075303 26.7769253,34.1096571 C27.186787,34.118164 27.4158742,34.2500217 27.4631251,34.4988498 C27.4631251,34.8189236 27.469496,35.1198568 27.4761324,35.4197266 C27.2560706,35.1618599 26.8459434,35.01352 26.2462817,34.9720487 C25.2978129,35.0613716 24.8399038,35.4994792 24.8746784,36.2895617 C24.908922,36.9796876 25.4010746,37.3465496 26.349809,37.3858942 C26.8483325,37.4082249 27.227667,37.2604167 27.4947142,36.9254558 C27.501616,37.0711372 27.501616,37.2019315 27.501616,37.3337892 L28.4264595,37.3337892 C28.4336267,36.3320964 28.4336267,35.3378473 28.4336267,34.3425348 C28.2008231,33.8236112 27.8098087,33.5471355 27.268547,33.5131077 C26.7917907,33.4998156 26.3219363,33.4998156 25.8518164,33.4998156 C25.2651619,33.6641059 25.0020965,34.0384115 25.0421801,34.6285807 Z M27.4761324,36.0098958 C27.2897833,35.6797201 26.880718,35.5685981 26.2481399,35.6813151 C25.8974745,35.8344401 25.7626236,36.0673177 25.8446491,36.383138 C25.9359654,36.7808377 26.3606926,36.8956815 27.1265288,36.709592 C27.4044596,36.5979384 27.5207287,36.3671875 27.4761324,36.0098958 Z" id="Shape"></path>
                        <path d="M20.7309338,33.4748264 L21.6823227,33.4748264 C22.3897589,33.4748264 22.9687151,34.045855 22.9687151,34.7434245 L22.9687151,35.5409505 L20.3956647,35.5409505 C20.2873593,36.3257162 20.4891047,36.7064019 20.98869,36.6840712 C21.1713227,36.6734375 21.364839,36.6734375 21.5596827,36.6734375 C21.8912353,36.7032118 22.0478535,36.5235026 22.0406862,36.0896485 L22.969246,36.0896485 L22.969246,36.1119792 C22.969246,36.8095486 22.3902898,37.3805772 21.683119,37.3805772 L20.7317301,37.3805772 C20.023763,37.3805772 19.4448068,36.8095486 19.4448068,36.1119792 L19.4448068,34.7434245 C19.4442759,34.045855 20.0232321,33.4748264 20.7309338,33.4748264 Z M22.0401553,35.0124566 C22.088999,34.4254775 21.8315081,34.1447483 21.25733,34.1612305 C20.6191774,34.156977 20.3319557,34.4446181 20.3956648,35.0246853 C20.9435628,35.0018229 21.4911954,35.0018229 22.0401553,35.0124566 Z" id="Shape"></path>
                        <path d="M14.8232441,31.8819011 L14.8232441,37.2907227 L17.956138,37.2907227 C18.8061233,37.3476129 19.2382832,36.8685656 19.253945,35.8668728 C19.2913741,35.1671766 19.0038869,34.7099284 18.3813961,34.5078884 C18.8700978,34.414312 19.1315704,34.0027886 19.1538686,33.2632161 C19.1013086,32.3848741 18.6168542,31.9196506 17.699178,31.8606337 C16.7286765,31.8638238 15.7595021,31.8670139 14.8232441,31.8819011 Z M15.8638257,32.7910807 L15.8638257,34.1713325 C16.4040256,34.1596354 16.9123709,34.1596354 17.4191236,34.1596354 C17.8595126,34.167079 18.0716107,33.9458985 18.0676289,33.5099175 C18.0453307,33.1132813 17.8589816,32.8846571 17.5088472,32.8134114 C16.9559055,32.817665 16.4268547,32.8102214 15.8638257,32.7910807 Z M15.8638257,34.9454644 L15.8638257,36.4480035 C16.442251,36.4363064 16.9859018,36.4363064 17.5290218,36.4363064 C18.0007344,36.4448134 18.2287598,36.2044921 18.2242471,35.7281033 C18.2003562,35.2963758 18.0007344,35.0475477 17.6245854,34.9699218 C17.0342146,34.973112 16.4672038,34.9656684 15.8638257,34.9454644 Z" id="Shape"></path>
                    </g>
                </g>
            </g>
        </g>
    </g>
</svg>