<?xml version="1.0" encoding="UTF-8" standalone="no"?>
<svg width="118px" height="45px" viewBox="0 0 118 45" version="1.1" xmlns="http://www.w3.org/2000/svg" xmlns:xlink="http://www.w3.org/1999/xlink" xmlns:sketch="http://www.bohemiancoding.com/sketch/ns">
    <!-- Generator: Sketch 3.5.1 (25234) - http://www.bohemiancoding.com/sketch -->
    <title>nbcuniversal</title>
    <desc>Created with Sketch.</desc>
    <defs></defs>
    <g id="Page-1" stroke="none" stroke-width="1" fill="none" fill-rule="evenodd" sketch:type="MSPage">
        <g id="Desktop-HD" sketch:type="MSArtboardGroup" transform="translate(-1356.000000, -1373.000000)" fill="#7581A0">
            <g id="Group" sketch:type="MSLayerGroup" transform="translate(36.000000, 1368.000000)">
                <g id="nbcuniversal" transform="translate(1320.000000, 5.000000)" sketch:type="MSShapeGroup">
                    <g id="Group">
                        <path d="M33.855,25.645 L30.126,23.161 C29.178,22.526 28.24,23.173 28.04,23.841 C27.747,24.825 28.403,25.646 29.436,25.646 L33.855,25.646" id="Shape"></path>
                        <path d="M39.06,20.463 C38.299,19.854 37.326,20.159 36.915,21.109 L35.168,25.223 L39.036,22.609 C39.894,22.022 39.576,20.885 39.06,20.463" id="Shape"></path>
                        <path d="M36.996,20.463 C37.478,19.103 36.316,18.376 35.509,18.552 C34.687,18.728 34.417,19.35 34.417,19.959 L34.78,19.959 C34.78,19.959 35.004,19.959 35.086,20.054 C35.086,20.054 34.5,20.264 34.522,20.628 C34.547,21.096 34.629,21.284 34.77,22.151 C34.969,23.381 35.191,24.742 35.191,24.742 C35.309,24.496 36.996,20.475 36.996,20.463" id="Shape"></path>
                        <path d="M40.69,24.05 C40.572,23.149 39.552,22.469 38.556,23.136 C38.556,23.136 34.841,25.645 34.803,25.645 L39.318,25.645 C40.527,25.645 40.762,24.602 40.69,24.05" id="Shape"></path>
                        <path d="M34.253,20.054 C34.405,19.091 33.551,18.365 32.612,18.563 C31.71,18.752 31.369,19.724 31.651,20.393 L33.503,24.789 L34.253,20.054" id="Shape"></path>
                        <path d="M33.527,25.247 L31.722,21.049 C31.299,20.076 30.161,19.947 29.528,20.51 C29.083,20.908 28.731,21.998 29.716,22.669 L33.527,25.247" id="Shape"></path>
                        <path d="M79.99,28.707 C77.132,37.194 68.611,43.353 58.764,43.353 C48.915,43.353 40.425,37.195 37.575,28.707 L37.381,28.707 C40.032,38.02 48.6,44.845 58.765,44.845 C68.93,44.845 77.497,38.021 80.15,28.707 L79.99,28.707 L79.99,28.707 Z M58.765,1.221 C68.713,1.221 77.287,7.516 80.061,16.138 L80.133,16.138 C77.479,6.826 68.929,0 58.765,0 C48.6,0 40.032,6.824 37.381,16.138 L37.485,16.138 C40.243,7.512 48.813,1.221 58.765,1.221 L58.765,1.221 Z" id="Shape"></path>
                        <path d="M48.801,19.554 C48.801,19.445 48.764,19.354 48.45,19.329 L48.45,19.18 L51.026,19.18 L51.026,19.329 C50.714,19.353 50.675,19.444 50.675,19.554 L50.675,22.904 C50.675,25.102 49.139,25.831 47.226,25.831 C45.314,25.831 43.776,25.102 43.776,22.904 L43.776,19.554 C43.776,19.445 43.74,19.354 43.427,19.329 L43.427,19.18 L46.001,19.18 L46.001,19.329 C45.688,19.353 45.651,19.444 45.651,19.554 L45.651,22.904 C45.651,23.867 46.225,24.255 47.225,24.255 C48.225,24.255 48.799,23.867 48.799,22.904 L48.799,19.554" id="Shape"></path>
                        <path d="M60.356,25.273 C60.356,25.482 60.535,25.526 60.772,25.54 L60.772,25.718 L58.023,25.718 L58.023,25.54 C58.171,25.54 58.452,25.526 58.452,25.347 C58.452,25.005 56.55,23.311 54.869,21.346 L54.84,21.377 L54.84,25.273 C54.84,25.482 55.019,25.526 55.228,25.54 L55.228,25.718 L52.684,25.718 L52.684,25.54 C52.877,25.526 53.057,25.482 53.057,25.273 L53.057,19.622 C53.057,19.414 52.877,19.369 52.655,19.353 L52.655,19.176 L56.193,19.176 L56.193,19.353 C56.06,19.369 55.882,19.414 55.882,19.622 C55.882,19.726 57.323,21.199 58.572,22.551 L58.572,19.622 C58.572,19.414 58.393,19.369 58.156,19.353 L58.156,19.176 L60.772,19.176 L60.772,19.353 C60.535,19.369 60.356,19.414 60.356,19.622 L60.356,25.273" id="Shape"></path>
                        <path d="M65.916,19.177 L65.916,19.354 C65.618,19.37 65.442,19.415 65.442,19.623 L65.442,25.274 C65.442,25.483 65.618,25.527 65.916,25.541 L65.916,25.719 L62.974,25.719 L62.974,25.54 C63.271,25.526 63.449,25.482 63.449,25.273 L63.449,19.622 C63.449,19.414 63.271,19.369 62.974,19.353 L62.974,19.176 L65.916,19.176" id="Shape"></path>
                        <path d="M67.553,19.177 L70.363,19.177 L70.363,19.354 C70.244,19.354 69.992,19.354 69.992,19.505 C69.992,19.667 71.227,22.849 71.332,23.296 L71.359,23.296 C71.88,22.033 72.905,19.637 72.905,19.505 C72.905,19.354 72.654,19.354 72.566,19.354 L72.566,19.177 L75.048,19.177 L75.048,19.354 C74.884,19.37 74.779,19.415 74.736,19.563 C74.542,20.187 72.431,25.185 72.431,25.302 C72.431,25.465 72.607,25.557 72.742,25.54 L72.742,25.718 L69.605,25.718 L69.605,25.54 C69.739,25.557 69.918,25.465 69.918,25.302 C69.918,25.242 68.014,19.563 67.806,19.431 C67.687,19.354 67.626,19.354 67.553,19.354 L67.553,19.177" id="Shape"></path>
                        <path d="M82.719,24.378 C82.896,24.378 83.047,24.274 83.107,24.006 L83.287,24.006 L83.287,25.997 L83.135,25.997 C83.033,25.728 82.957,25.685 82.72,25.685 L76.087,25.685 L76.087,25.507 C76.295,25.492 76.504,25.448 76.504,25.239 L76.504,19.589 C76.504,19.38 76.295,19.335 76.087,19.32 L76.087,19.14 L82.839,19.14 C82.957,19.14 83.108,19.083 83.108,18.814 L83.288,18.814 L83.288,20.807 L83.108,20.807 C83.108,20.509 82.958,20.449 82.839,20.449 L78.496,20.449 L78.496,21.655 L81.292,21.655 C81.411,21.655 81.562,21.597 81.562,21.314 L81.739,21.314 L81.739,23.248 L81.562,23.248 C81.562,22.963 81.412,22.905 81.292,22.905 L78.496,22.905 L78.496,24.377 L82.719,24.377" id="Shape"></path>
                        <path d="M85.2,19.565 C85.2,19.358 85.022,19.314 84.872,19.298 L84.872,19.12 L89.646,19.12 C91.106,19.12 92.085,19.833 92.085,21.187 C92.085,22.256 91.356,22.838 90.434,23.196 L91.758,25.185 C91.862,25.35 92.069,25.485 92.278,25.485 L92.278,25.662 L89.276,25.662 L89.276,25.485 C89.407,25.485 89.633,25.44 89.633,25.292 C89.633,25.097 88.619,23.479 88.501,23.228 L87.073,23.228 L87.073,25.218 C87.073,25.426 87.253,25.47 87.462,25.486 L87.462,25.663 L84.904,25.663 L84.904,25.486 C85.021,25.47 85.199,25.426 85.199,25.218 L85.199,19.565 L85.2,19.565 Z M87.074,21.976 L89.187,21.976 C89.81,21.976 90.21,21.71 90.21,21.171 C90.21,20.711 89.957,20.371 89.079,20.371 L87.073,20.371 L87.073,21.976 L87.074,21.976 Z" id="Shape"></path>
                        <path d="M94.096,23.466 L94.288,23.555 C94.288,23.6 94.273,23.643 94.273,23.717 C94.273,24.103 95.984,24.491 97.189,24.491 C97.559,24.491 98.541,24.431 98.541,23.85 C98.541,22.69 93.678,23.82 93.678,21.325 C93.678,20.401 94.557,19.106 96.98,19.106 C98.394,19.106 99.613,19.493 99.938,19.493 C100.104,19.493 100.192,19.375 100.266,19.316 L100.431,19.375 L99.537,21.249 L99.347,21.16 C99.347,21.116 99.359,21.056 99.359,20.996 C99.359,20.848 98.305,20.448 97.307,20.448 C96.936,20.448 95.614,20.448 95.614,21.099 C95.614,22.155 100.475,21.069 100.475,23.658 C100.475,24.819 99.48,25.83 97.204,25.83 C95.778,25.83 94.111,25.295 93.992,25.295 C93.858,25.295 93.754,25.398 93.651,25.503 L93.488,25.457 L94.096,23.466" id="Shape"></path>
                        <path d="M107.263,25.718 L107.263,25.54 C107.321,25.54 107.453,25.54 107.453,25.407 C107.453,25.242 107.127,24.664 107.022,24.393 L103.572,24.393 C103.484,24.664 103.141,25.242 103.141,25.407 C103.141,25.54 103.273,25.54 103.334,25.54 L103.334,25.718 L101.104,25.718 L101.104,25.54 C101.223,25.54 101.356,25.495 101.403,25.392 C102.591,22.613 103.973,19.711 103.973,19.505 C103.973,19.4 103.93,19.369 103.782,19.354 L103.782,19.177 L106.888,19.177 L106.888,19.354 C106.74,19.37 106.695,19.4 106.695,19.505 C106.695,19.682 108.778,23.859 109.431,25.392 C109.476,25.496 109.609,25.54 109.727,25.54 L109.727,25.718 L107.263,25.718 L107.263,25.718 Z M106.518,23.325 L105.268,20.723 L104.05,23.325 L106.518,23.325 L106.518,23.325 Z" id="Shape"></path>
                        <path d="M111.166,19.584 C111.166,19.378 110.988,19.332 110.765,19.318 L110.765,19.138 L113.547,19.138 L113.547,19.318 C113.335,19.332 113.158,19.378 113.158,19.584 L113.158,24.167 L117.233,24.167 C117.354,24.167 117.499,24.107 117.499,23.793 L117.679,23.793 L117.679,26.053 L117.499,26.053 C117.499,25.741 117.354,25.68 117.233,25.68 L110.764,25.68 L110.764,25.503 C110.988,25.491 111.165,25.445 111.165,25.237 L111.165,19.584" id="Shape"></path>
                        <path d="M0.348,19.544 C0.348,19.434 0.31,19.345 0,19.32 L0,19.172 L2.996,19.172 L2.996,19.32 C2.708,19.334 2.647,19.409 2.647,19.479 C2.647,19.62 4.796,21.903 5.666,22.861 L5.666,19.544 C5.666,19.396 5.565,19.334 5.404,19.32 L5.404,19.172 L7.678,19.172 L7.678,19.32 C7.367,19.344 7.33,19.433 7.33,19.544 L7.33,25.334 C7.33,25.446 7.367,25.533 7.678,25.557 L7.678,25.707 L5.317,25.707 L5.317,25.557 C5.541,25.557 5.604,25.509 5.604,25.422 C5.604,25.259 5.292,25.097 2.012,21.433 L2.012,25.334 C2.012,25.446 2.05,25.533 2.36,25.557 L2.36,25.707 L0,25.707 L0,25.557 C0.31,25.534 0.348,25.447 0.348,25.334 L0.348,19.544" id="Shape"></path>
                        <path d="M9.622,19.544 C9.622,19.434 9.584,19.345 9.272,19.32 L9.272,19.172 L14.007,19.172 C15.347,19.172 16.329,19.668 16.329,20.899 C16.329,21.644 15.832,22.102 15.136,22.254 L15.136,22.276 C15.969,22.503 16.576,22.947 16.576,23.867 C16.576,24.861 15.832,25.707 14.068,25.707 L9.272,25.707 L9.272,25.557 C9.584,25.534 9.622,25.447 9.622,25.334 L9.622,19.544 L9.622,19.544 Z M11.485,21.63 L13.175,21.63 C14.241,21.63 14.517,21.557 14.517,21.057 C14.517,20.562 14.242,20.489 13.175,20.489 L11.485,20.489 L11.485,21.63 L11.485,21.63 Z M11.485,24.389 L13.597,24.389 C14.466,24.389 14.814,24.192 14.814,23.644 C14.814,23.1 14.466,22.899 13.597,22.899 L11.485,22.899 L11.485,24.389 L11.485,24.389 Z" id="Shape"></path>
                        <path d="M23.914,21.581 L23.788,21.495 C23.802,21.445 23.815,21.397 23.815,21.307 C23.815,21.056 22.857,20.737 21.802,20.737 C20.794,20.737 19.489,21.173 19.489,22.437 C19.489,23.707 20.794,24.142 21.802,24.142 C22.237,24.142 23.889,23.803 23.889,23.445 C23.889,23.37 23.84,23.32 23.815,23.258 L23.951,23.169 L25.231,25.122 L25.081,25.207 C25.044,25.122 24.995,25.109 24.908,25.109 C24.659,25.109 23.503,25.782 21.653,25.782 C19.664,25.782 17.553,24.662 17.553,22.436 C17.553,20.212 19.663,19.094 21.653,19.094 C22.645,19.094 23.355,19.218 23.851,19.357 C24.335,19.494 24.583,19.593 24.708,19.593 C24.782,19.593 24.846,19.554 24.896,19.493 L25.032,19.531 L23.914,21.581" id="Shape"></path>
                    </g>
                </g>
            </g>
        </g>
    </g>
</svg>