<?xml version="1.0" encoding="UTF-8" standalone="no"?>
<svg width="138px" height="22px" viewBox="0 0 138 22" version="1.1" xmlns="http://www.w3.org/2000/svg" xmlns:xlink="http://www.w3.org/1999/xlink">
  <path fill="#7581A0" d="M92.5540083,0.1 C99.4098607,0.1 104.24012,3.83955589 104.24012,10.7473466 C104.24012,17.3435077 99.7214904,21.3946933 92.5540083,21.3946933 C85.542341,21.3946933 80.8678961,17.5512608 80.8678961,10.7473466 C80.8678961,4.047309 85.4904027,0.1 92.5540083,0.1 L92.5540083,0.1 Z M92.5540083,17.0318781 C96.1896876,17.0318781 98.3710952,14.5388408 98.3710952,10.7992849 C98.3710952,6.85197591 96.0858111,4.56669176 92.5540083,4.56669176 C88.8144524,4.56669176 86.7369213,7.05972902 86.7369213,10.7992849 C86.7369213,14.3310877 88.7625141,17.0318781 92.5540083,17.0318781 L92.5540083,17.0318781 Z M48.8219797,0.359691381 L37.3436206,0.359691381 L37.3436206,1.96977795 C37.3436206,3.3721114 38.0707565,4.72250659 40.0963493,4.72250659 L47.4196462,4.72250659 C50.4840045,4.72250659 51.5747083,5.70933384 51.5747083,8.15043282 L51.5747083,8.51400075 L43.7839669,8.51400075 C38.0188182,8.51400075 35.8893489,11.1628528 35.8893489,14.7985322 C35.8893489,19.2132857 38.8498306,21.1350019 43.7839669,21.1350019 L43.7839669,21.1350019 L48.9258562,21.1350019 C55.6778321,21.1350019 57.1321039,17.7590139 57.1321039,13.2923222 L57.1321039,8.15043282 C57.1321039,3.3721114 55.3662025,0.359691381 48.8219797,0.359691381 L48.8219797,0.359691381 Z M51.52277,13.3442604 C51.52277,15.4217915 50.5359428,17.0318781 47.7312759,17.0318781 L44.8227324,17.0318781 C42.7971396,17.0318781 41.550621,16.5124953 41.550621,14.7985322 C41.550621,13.1884456 42.6932631,12.5651863 44.8227324,12.5651863 L51.52277,12.5651863 L51.52277,13.3442604 L51.52277,13.3442604 Z M73.3368461,4.72250659 L76.1934513,4.72250659 C78.219044,4.72250659 79.4655627,3.99537072 79.4655627,2.12559277 L79.4655627,0.359691381 L71.3631916,0.359691381 C64.5592774,0.359691381 61.287166,4.35893865 61.287166,10.7473466 C61.287166,18.7458412 66.2732405,21.1350019 71.3631916,21.1350019 L79.4655627,21.1350019 L79.4655627,19.3691005 C79.4655627,17.4993225 78.219044,16.7721867 76.3492661,16.7721867 L73.3368461,16.7721867 C70.1166729,16.7721867 67.1042529,15.6295446 67.1042529,10.7473466 C67.1042529,6.54034626 69.3375988,4.72250659 73.3368461,4.72250659 L73.3368461,4.72250659 Z M11.9458035,15.4737298 C11.9458035,15.4737298 7.11554385,2.85272864 6.85585247,2.12559277 C6.49228453,1.13876553 5.97290177,0.359691381 4.1550621,0.359691381 L0,0.359691381 L8.56981558,21.1350019 L14.8024087,21.1350019 L23.6319157,0.359691381 L19.9962364,0.359691381 C18.4380881,0.359691381 17.8148288,1.03488897 17.3993225,2.02171622 L12.0496801,15.4737298 L11.9458035,15.4737298 L11.9458035,15.4737298 Z M123.145653,15.3179149 C123.145653,15.3179149 119.61385,5.18995107 118.938653,3.26823485 C118.523146,1.96977795 117.899887,0.359691381 114.991344,0.359691381 L108.395183,0.359691381 L108.395183,21.1350019 L110.628528,21.1350019 C112.342492,21.1350019 113.381257,20.3559277 113.381257,18.6419646 L113.381257,4.09924727 L113.485134,4.09924727 L119.92548,21.1350019 L125.95032,21.1350019 L132.390666,4.09924727 L132.494543,4.09924727 L132.494543,18.6419646 C132.494543,20.0962364 133.273617,21.1350019 135.247271,21.1350019 L138,21.1350019 L138,0.359691381 L131.819345,0.359691381 C129.637938,0.359691381 128.287542,0.982950696 127.612345,2.90466692 C127.196839,4.20312382 123.301468,15.2659767 123.301468,15.2659767 L123.145653,15.2659767 L123.145653,15.3179149 Z M26.1768912,0.359691381 L26.1768912,18.7458412 C26.1768912,20.2001129 27.0079037,21.1869402 28.8776816,21.1869402 L31.7862251,21.1869402 L31.7862251,0.411629658 L26.1768912,0.411629658 L26.1768912,0.359691381 Z"></path>
</svg>
