<?xml version="1.0" encoding="UTF-8" standalone="no"?>
<svg width="52px" height="52px" viewBox="0 0 52 52" version="1.1" xmlns="http://www.w3.org/2000/svg" xmlns:xlink="http://www.w3.org/1999/xlink" xmlns:sketch="http://www.bohemiancoding.com/sketch/ns">
    <!-- Generator: Sketch 3.5.1 (25234) - http://www.bohemiancoding.com/sketch -->
    <title>xero</title>
    <desc>Created with Sketch.</desc>
    <defs></defs>
    <g id="Page-1" stroke="none" stroke-width="1" fill="none" fill-rule="evenodd" sketch:type="MSPage">
        <g id="Desktop-HD" sketch:type="MSArtboardGroup" transform="translate(-1511.000000, -1369.000000)" fill="#7581A0">
            <g id="Group" sketch:type="MSLayerGroup" transform="translate(36.000000, 1368.000000)">
                <g id="xero-seeklogo.com" transform="translate(1475.000000, 1.000000)" sketch:type="MSShapeGroup">
                    <g id="Group-3">
                        <path d="M23.7174846,0.0990070755 C27.3284257,-0.214522336 31.0089551,0.216007075 34.4371316,1.39900708 C39.6424846,3.16777178 44.2376022,6.6548306 47.3637198,11.1742424 C49.0032493,13.5295365 50.2497198,16.15936 51.026661,18.9230071 C52.4681316,24.0274188 52.306014,29.57536 50.5517787,34.5826541 C49.1913669,38.4887718 46.8735434,42.0530659 43.8659551,44.8916541 C40.5937787,47.9978894 36.498014,50.2308306 32.1070728,51.2792424 C26.3870728,52.6618306 20.1983081,52.0470071 14.8820728,49.5112424 C9.98948455,47.2041247 5.85930808,43.3263012 3.24477867,38.5912424 C1.73448455,35.8757718 0.727366908,32.8811835 0.276190437,29.8063012 C-0.24992721,26.2045365 -0.0251036806,22.4911247 0.956778672,18.9841835 C2.2476022,14.3194777 4.89577867,10.0478306 8.4738375,6.79171296 C12.6368963,2.96741884 18.0823669,0.568536487 23.7174846,0.0990070755 Z M26.9713081,21.7822424 C26.0995434,20.8936541 24.9188375,20.3208894 23.6868963,20.1572424 C22.1896022,19.9415953 20.6081904,20.3285365 19.3946022,21.2362424 C17.4782493,22.6226541 16.5789551,25.2440659 17.239661,27.5152424 C17.6013669,28.8259483 18.4517198,29.9860071 19.5712493,30.7514777 C20.6533081,31.5024188 21.9968963,31.8641247 23.3098963,31.7555365 C24.239014,31.6698894 25.1543669,31.3800659 25.9473669,30.8853012 C26.5690728,30.4960659 27.0837198,29.9600071 27.535661,29.3880071 C27.7298963,29.1486541 27.7673669,28.8144777 27.6855434,28.5238894 C27.5456022,28.0696541 26.943014,27.84636 26.5361904,28.0872424 C26.2777198,28.2256541 26.1515434,28.5032424 25.9618963,28.7127718 C25.4357787,29.3061835 24.7483081,29.7642424 23.9805434,29.9768306 C22.6897198,30.3461835 21.217661,30.0425953 20.196014,29.1662424 C19.416014,28.5101247 18.8409551,27.5802424 18.6979551,26.5631835 C21.3851316,26.5685365 24.0738375,26.5616541 26.7617787,26.5662424 C27.1793081,26.5845953 27.6174846,26.525713 27.9761316,26.2963012 C28.4494846,25.9995953 28.6918963,25.4015953 28.5848375,24.8571247 C28.3615434,23.7054777 27.8163081,22.6035365 26.9713081,21.7822424 Z M18.7576022,24.9465953 C19.0168375,23.9195953 19.6622493,22.9920071 20.554661,22.4169483 C21.6183669,21.71036 23.0139551,21.5375365 24.2176022,21.9673012 C25.5512493,22.4154188 26.5981316,23.5838894 26.9307787,24.94736 C24.2068963,24.9465953 21.4822493,24.94736 18.7576022,24.9465953 Z M16.745661,30.2039483 C15.3171904,28.7815953 13.8940728,27.3531247 12.4678963,25.927713 C13.9338375,24.4518306 15.4112493,22.9858894 16.8787198,21.5107718 C17.1456022,21.2484777 17.2067787,20.8049483 17.0033669,20.48836 C16.7624846,20.0670071 16.1132493,19.986713 15.7721904,20.3285365 C14.2909551,21.8082424 12.8097198,23.288713 11.3307787,24.770713 C9.85489632,23.3215953 8.3958375,21.8564188 6.93448455,20.3935365 C6.73871985,20.1885953 6.4466022,20.0693012 6.16289632,20.1266541 C5.75607279,20.1962424 5.44636691,20.6130071 5.51136691,21.0236541 C5.55419044,21.3585953 5.83177867,21.5795953 6.05354338,21.8051835 C7.40554338,23.1571835 8.76213161,24.5068894 10.1095434,25.8657718 C10.1171904,25.8856541 10.1324846,25.9254188 10.1401316,25.9460659 C8.68566103,27.4349483 7.19448455,28.891713 5.73007279,30.3729483 C5.5236022,30.581713 5.45171985,30.9082424 5.5488375,31.1858306 C5.65895514,31.5582424 6.07801397,31.7945365 6.45577867,31.7211247 C6.76854338,31.6790659 6.95895514,31.4030071 7.17230808,31.2026541 C8.56866103,29.8391835 9.93519044,28.4489483 11.3177787,27.0732424 C12.7890728,28.5315365 14.2481316,30.0013012 15.7140728,31.4641835 C15.9197787,31.6828894 16.2394257,31.7968306 16.5330728,31.7058306 C16.9001316,31.6209483 17.1624257,31.2378306 17.1211316,30.8638894 C17.1180728,30.5931835 16.9299551,30.3798306 16.745661,30.2039483 Z M34.7927198,21.2270659 C34.9364846,20.8080071 34.6588963,20.2964188 34.2191904,20.2123012 C33.3566022,20.1029483 32.4565434,20.3239483 31.760661,20.8493012 C31.6337198,20.4310071 31.1794846,20.1434777 30.7497198,20.2757718 C30.3887787,20.3644777 30.1440728,20.7292424 30.1654846,21.0955365 C30.1624257,24.328713 30.1624257,27.5611247 30.1654846,30.7943012 C30.1326022,31.2454777 30.518014,31.6767718 30.9768375,31.6630071 C31.4066022,31.6752424 31.7958375,31.296713 31.7805434,30.8631247 C31.7858963,28.9865365 31.7813081,27.1084188 31.7828375,25.2310659 C31.7858963,24.53136 31.7545434,23.8201835 31.9074846,23.1319483 C31.9954257,22.7205365 32.2256022,22.3244188 32.5972493,22.1110659 C33.0423081,21.8633012 33.5615434,21.7929483 34.0639551,21.7684777 C34.3881904,21.7646541 34.7070728,21.5459483 34.7927198,21.2270659 Z M45.7035434,23.8064188 C45.2225434,22.5523012 44.2865434,21.4801835 43.1134846,20.8278894 C42.0207198,20.2100071 40.7237787,19.9706541 39.4811316,20.1358306 C37.5831316,20.3782424 35.8541316,21.6224188 35.0244257,23.3453012 C34.3446022,24.7080071 34.2421316,26.3398894 34.7269551,27.7805953 C35.0932493,28.8940071 35.816661,29.879713 36.7488375,30.5840071 C37.7582493,31.3525365 39.0261316,31.7761835 40.2955434,31.7563012 C41.5603669,31.7624188 42.8175434,31.3234777 43.8185434,30.5541835 C44.8363669,29.7741835 45.5896022,28.6493012 45.9092493,27.4058894 C46.2227787,26.2244188 46.1524257,24.9435365 45.7035434,23.8064188 Z M43.6724846,28.3151247 C43.0752493,29.1754188 42.1407787,29.7948306 41.1160728,30.0051247 C40.1953669,30.2070071 39.2081316,30.0701247 38.3730728,29.6388306 C37.2489551,29.073713 36.4093081,27.9733012 36.1722493,26.7375365 C35.9321316,25.59736 36.2158375,24.3593012 36.921661,23.4332424 C37.5410728,22.5974188 38.4801316,22.0063012 39.5048375,21.8220071 C40.3513669,21.663713 41.2483669,21.7745953 42.0253081,22.1470071 C43.1761904,22.6807718 44.0594257,23.7658894 44.3301316,25.0085365 C44.597014,26.1372424 44.3454257,27.3730071 43.6724846,28.3151247 Z M39.8772493,24.5160659 C39.4214846,24.6475953 39.0284257,25.0039483 38.8808375,25.4589483 C38.728661,25.9238894 38.8181316,26.4668306 39.1347198,26.8438306 C39.4948963,27.3072424 40.1563669,27.4892424 40.710014,27.3110659 C41.328661,27.1191247 41.7752493,26.4775365 41.7087198,25.8267718 C41.6964846,24.9335953 40.7253081,24.263713 39.8772493,24.5160659 Z" id="xero"></path>
                    </g>
                </g>
            </g>
        </g>
    </g>
</svg>