<?xml version="1.0" encoding="UTF-8" standalone="no"?>
<svg width="138px" height="29px" viewBox="0 0 138 29" version="1.1" xmlns="http://www.w3.org/2000/svg" xmlns:xlink="http://www.w3.org/1999/xlink">
  <path fill="#76829F" d="M3.71037185,3.91775255 L6.77376611,3.91775255 C9.57357691,3.91775255 10.8073918,4.78102099 10.8073918,6.53599711 C10.8073918,8.06024846 9.57357691,9.09598711 7.09701998,9.09598711 L3.71037185,9.09598711 L3.71037185,3.91775255 L3.71037185,3.91775255 Z M0,21.1693605 L7.50813501,21.1693605 C11.4538996,21.1693605 15.3991943,19.7932684 15.3991943,15.3631692 C15.3991943,12.7453833 13.5193415,10.7349128 10.8985419,10.4445574 L10.8985419,10.3840093 C13.042448,9.75697001 14.5215224,8.23225997 14.5215224,5.93189268 C14.5215224,2.22194839 11.2781773,0.814206172 8.12645201,0.814206172 L0,0.814206172 L0,21.1693605 L0,21.1693605 Z M3.71037185,12.1995335 L7.27274229,12.1995335 C10.2759963,12.1995335 11.6944606,12.9481276 11.6944606,15.0774008 C11.6944606,17.7474781 9.03748291,18.0658141 7.12474088,18.0658141 L3.71037185,18.0658141 L3.71037185,12.1995335 Z M17.830646,0 L21.0725817,0 L21.0725817,21.1693605 L17.830646,21.1693605 L17.830646,0 Z M27.0442295,14.6575671 C27.0442295,12.4767958 28.6082396,10.4714142 31.2041011,10.4714142 C33.7999626,10.4714142 35.3592674,12.4772598 35.3592674,14.6575671 C35.3592674,16.8388024 33.7999626,18.844648 31.2041011,18.844648 C28.6077691,18.844648 27.0442295,16.8392664 27.0442295,14.6575671 Z M23.5040334,14.6575671 C23.5040334,19.0497333 26.9233057,21.9835666 31.2041011,21.9835666 C35.4792502,21.9835666 38.9032277,19.0497333 38.9032277,14.6575671 C38.9032277,10.2658649 35.4797207,7.32785555 31.2041011,7.32785555 C26.9233057,7.32739155 23.5040334,10.2663289 23.5040334,14.6575671 Z M43.2529667,14.6575671 C43.2529667,12.4767958 44.8174473,10.4714142 47.4133088,10.4714142 C50.0086997,10.4714142 51.5684751,12.4772598 51.5684751,14.6575671 C51.5684751,16.8388024 50.0086997,18.844648 47.4133088,18.844648 C44.8174473,18.844648 43.2529667,16.8392664 43.2529667,14.6575671 Z M39.7137116,14.6575671 C39.7137116,19.0497333 43.1334545,21.9835666 47.4133088,21.9835666 C51.6884579,21.9835666 55.1129059,19.0497333 55.1129059,14.6575671 C55.1129059,10.2658649 51.6889284,7.32785555 47.4133088,7.32785555 C43.132984,7.32739155 39.7137116,10.2663289 39.7137116,14.6575671 Z M57.5443576,7.68753696 L60.7748572,7.68753696 L60.7748572,9.92354852 L60.8281792,9.92354852 C61.4237588,8.58222667 62.725177,7.32785555 64.9918137,7.32785555 C67.0894468,7.32785555 68.5381783,8.18976055 69.2444688,9.9796151 C70.2349927,8.16600352 71.6796573,7.32785555 73.7149307,7.32785555 C77.3408265,7.32785555 78.6169393,10.0423337 78.6169393,13.4676221 L78.6169393,21.9835666 L75.2169843,21.9835666 L75.2169843,13.8833701 C75.2169843,12.0982669 74.7104253,10.5493087 72.697294,10.5493087 C70.5739037,10.5493087 69.7776888,12.3947547 69.7776888,14.2383001 L69.7776888,21.9830915 L66.3831563,21.9830915 L66.3831563,13.4671469 C66.3831563,11.7053257 65.7030749,10.5493087 64.0591307,10.5493087 C61.8236738,10.5493087 60.9438608,12.2712181 60.9438608,14.1798578 L60.9438608,21.9830915 L57.5443576,21.9830915 L57.5443576,7.68753696 Z M93.068173,14.9302636 C93.068173,17.0880537 91.5792906,19.0679384 89.0961728,19.0679384 C86.6166491,19.0679384 85.1237234,17.0880537 85.1237234,14.9302636 C85.1237234,12.7752246 86.6166491,10.7889206 89.0961728,10.7889206 C91.5792906,10.7889206 93.068173,12.7752246 93.068173,14.9302636 Z M85.0711588,21.8273053 L85.0711588,19.759385 L85.1237234,19.759385 C86.1134662,21.4210576 87.8853889,22.1693605 89.775919,22.1693605 C93.9379606,22.1693605 96.4475854,19.008331 96.4475854,14.9302636 C96.4475854,10.8494451 93.7703827,7.68658155 89.9129465,7.68658155 C87.3813075,7.68658155 86.0249599,8.89065226 85.3227502,9.78797381 L85.2387366,9.78797381 L85.2387366,1 L81.858875,1 L81.858875,21.8273053 L85.0711588,21.8273053 Z M101.470936,13.2618734 C101.724656,11.2518519 102.974262,9.9447811 104.984124,9.9447811 C107.11067,9.9447811 108.413643,11.2249402 108.444849,13.2618734 L101.470936,13.2618734 Z M111.84678,15.878799 L111.84678,14.9206516 C111.84678,10.0612436 109.26797,7.32785555 105.469403,7.32785555 C101.350634,7.32785555 98.0685532,10.2663289 98.0685532,14.6575671 C98.0685532,19.0497333 101.350634,21.9835666 105.469403,21.9835666 C107.617658,21.9835666 109.636565,21.199417 111.219942,19.1958913 L108.782238,17.3088282 C107.933338,18.3792621 106.825743,19.1958913 105.126135,19.1958913 C103.227982,19.1958913 101.692546,17.9431078 101.470936,15.878799 L111.84678,15.878799 Z M114.279158,7.68753696 L117.764037,7.68753696 L117.764037,9.95158181 L117.822867,9.95158181 C118.579321,8.3132971 120.114002,7.32785555 121.945613,7.32785555 C122.382902,7.32785555 122.788228,7.41908254 123.193554,7.54024338 L123.193554,10.9935651 C122.614517,10.8462715 122.059568,10.7270112 121.507861,10.7270112 C118.228193,10.7270112 117.76311,13.5578988 117.76311,14.3342785 L117.76311,21.9835666 L114.278231,21.9835666 L114.278231,7.68753696 L114.279158,7.68753696 Z M130.5726,10.4555825 C133.019851,10.4555825 134.570781,12.1273941 134.570781,14.5336219 C134.570781,16.8429731 133.050852,18.6075093 130.545643,18.6075093 C128.265525,18.6075093 126.57352,16.7862311 126.57352,14.5875959 C126.57352,12.1273941 128.203973,10.4555825 130.5726,10.4555825 Z M134.570781,7.67707226 L134.570781,9.75945569 L134.517316,9.75945569 C133.527992,8.08072434 131.751971,7.32785555 129.865426,7.32785555 C125.699213,7.32785555 123.193554,10.5100179 123.193554,14.6175815 C123.193554,18.5466155 125.87084,21.7292392 129.923384,21.7292392 C131.614939,21.7292392 133.360409,21.0667885 134.350182,19.7082109 L134.398705,19.7082109 L134.398705,20.7221849 C134.398705,23.4660965 133.391409,25.3768701 130.121518,25.3768701 C128.234973,25.3768701 126.825569,24.6507577 125.473672,23.3715265 L123.450096,26.2104693 C125.358655,27.9528623 127.642817,28.497216 130.152519,28.497216 C135.419029,28.497216 137.782265,25.3132084 137.782265,20.3134584 L137.782265,7.67707226 L134.570781,7.67707226"></path>
</svg>
