<?xml version="1.0" encoding="UTF-8" standalone="no"?>
<svg width="167px" height="36px" viewBox="0 0 167 36" version="1.1" xmlns="http://www.w3.org/2000/svg" xmlns:xlink="http://www.w3.org/1999/xlink" xmlns:sketch="http://www.bohemiancoding.com/sketch/ns">
    <!-- Generator: Sketch 3.3.3 (12081) - http://www.bohemiancoding.com/sketch -->
    <title>Microsoft_logo_(2012)</title>
    <desc>Created with Sketch.</desc>
    <defs></defs>
    <g id="Page-1" stroke="none" stroke-width="1" fill="none" fill-rule="evenodd" sketch:type="MSPage">
        <g id="Desktop-HD" sketch:type="MSArtboardGroup" transform="translate(-516.000000, -836.000000)" fill="#76829F">
            <g id="Microsoft_logo_(2012)" sketch:type="MSLayerGroup" transform="translate(516.000000, 836.000000)">
                <path d="M166.918592,16.1842598 L166.918592,13.2372018 L163.273203,13.2372018 L163.273203,8.65552371 L163.150502,8.69341561 L159.726529,9.74506788 L159.659115,9.76573619 L159.659115,13.2372018 L154.254925,13.2372018 L154.254925,11.303499 C154.254925,10.4030091 154.455552,9.71386278 154.850749,9.25429682 C155.243322,8.80020188 155.804833,8.56940575 156.520749,8.56940575 C157.035636,8.56940575 157.568688,8.69118668 158.104969,8.93130381 L158.239393,8.99148507 L158.239393,5.88779377 L158.176217,5.86449127 C157.675863,5.6839475 156.995067,5.5929664 156.151589,5.5929664 C155.088311,5.5929664 154.122117,5.82518095 153.279648,6.28555744 C152.436575,6.74654181 151.773338,7.40468566 151.30891,8.24154961 C150.845896,9.0774004 150.610958,10.0427321 150.610958,11.111 L150.610958,13.2372018 L148.072654,13.2372018 L148.072654,16.1842598 L150.610958,16.1842598 L150.610958,28.5996328 L154.254925,28.5996328 L154.254925,16.1842598 L159.659115,16.1842598 L159.659115,24.0740834 C159.659115,27.323466 161.185811,28.970244 164.196616,28.970244 C164.69152,28.970244 165.212067,28.9118864 165.743899,28.7978055 C166.285033,28.6808877 166.653587,28.5639699 166.870554,28.4391495 L166.918592,28.4107812 L166.918592,25.4363682 L166.770443,25.5348466 C166.572643,25.6673669 166.326401,25.775369 166.03758,25.8556107 C165.747532,25.9374734 165.505328,25.9786074 165.317829,25.9786074 C164.6124,25.9786074 164.090659,25.7877294 163.766703,25.411242 C163.439323,25.0313098 163.273219,24.3666818 163.273219,23.4372157 L163.273219,16.1842598 L166.918592,16.1842598 L166.918592,16.1842598 Z M139.935105,25.9788911 C138.612466,25.9788911 137.569775,25.538575 136.834886,24.6713165 C136.095557,23.7996001 135.720947,22.5568673 135.720947,20.9779704 C135.720947,19.3490239 136.095557,18.0740728 136.83529,17.1869565 C137.570583,16.3057165 138.603383,15.858511 139.905435,15.858511 C141.168935,15.858511 142.17469,16.2856561 142.895047,17.1288015 C143.619238,17.9762023 143.986582,19.2410218 143.986582,20.8890156 C143.986582,22.5572725 143.641037,23.8387078 142.959634,24.6958348 C142.283076,25.5466802 141.265615,25.9788911 139.935105,25.9788911 L139.935105,25.9788911 Z M140.097382,12.867077 C137.574014,12.867077 135.569771,13.6093125 134.140966,15.0733178 C132.712968,16.5375258 131.988776,18.5636281 131.988776,21.096104 C131.988776,23.501328 132.69561,25.436044 134.089699,26.8455417 C135.483788,28.2556473 137.381058,28.9699198 139.728222,28.9699198 C142.174286,28.9699198 144.138565,28.2173501 145.566967,26.7330818 C146.995166,25.2502318 147.718752,23.2433794 147.718752,20.7700715 C147.718752,18.3271583 147.039772,16.3780556 145.699977,14.9778788 C144.359577,13.5770942 142.474216,12.867077 140.097382,12.867077 L140.097382,12.867077 Z M126.113599,12.8669959 C124.397176,12.8669959 122.977454,13.3077172 121.892781,14.1767994 C120.801649,15.0509474 120.248212,16.1976334 120.248212,17.5850444 C120.248212,18.3062063 120.367699,18.9469239 120.60284,19.4901763 C120.839393,20.035455 121.205525,20.515284 121.691751,20.9181134 C122.174545,21.3177007 122.919325,21.7363353 123.906712,22.162062 C124.736464,22.5049128 125.355499,22.7950797 125.748678,23.0236469 C126.132976,23.2475536 126.405859,23.4728787 126.559861,23.6921249 C126.709422,23.9067106 126.785515,24.2003221 126.785515,24.5630307 C126.785515,25.5950278 126.015708,26.0971462 124.431488,26.0971462 C123.84394,26.0971462 123.173639,25.9741495 122.439356,25.7311955 C121.704669,25.4886468 121.01822,25.1399198 120.399388,24.6927143 L120.248212,24.5839017 L120.248212,28.1058223 L120.303717,28.131759 C120.819411,28.3706604 121.469326,28.5720751 122.2355,28.7307348 C123.000261,28.8893944 123.694985,28.970244 124.29868,28.970244 C126.161233,28.970244 127.661085,28.5272937 128.755446,27.6531458 C129.856871,26.7729189 130.415152,25.5992831 130.415152,24.163646 C130.415152,23.1282042 130.114617,22.2400747 129.522225,21.5239786 C128.934071,20.8135561 127.913179,20.1614911 126.489016,19.5850074 C125.35449,19.127873 124.627674,18.748346 124.327946,18.457166 C124.038915,18.1757123 123.89218,17.777746 123.89218,17.2738039 C123.89218,16.8270037 124.073227,16.4691582 124.445213,16.179194 C124.820025,15.8878113 125.341572,15.7396885 125.995928,15.7396885 C126.603054,15.7396885 127.224309,15.8359379 127.841931,16.0245869 C128.45935,16.2132359 129.001485,16.4659161 129.454206,16.7751303 L129.60296,16.8772561 L129.60296,13.5362844 L129.54584,13.5115635 C129.128239,13.3318303 128.577627,13.1780337 127.908941,13.0532133 C127.242878,12.9296087 126.638779,12.8669959 126.113599,12.8669959 L126.113599,12.8669959 Z M110.748545,25.9788911 C109.42631,25.9788911 108.383215,25.538575 107.648528,24.6713165 C106.908997,23.7996001 106.534993,22.5572725 106.534993,20.9779704 C106.534993,19.3490239 106.9094,18.0740728 107.649335,17.1869565 C108.384023,16.3057165 109.416621,15.858511 110.719278,15.858511 C111.982375,15.858511 112.98813,16.2856561 113.708688,17.1288015 C114.43288,17.9762023 114.800224,19.2410218 114.800224,20.8890156 C114.800224,22.5572725 114.454477,23.8387078 113.773074,24.6958348 C113.096516,25.5466802 112.079459,25.9788911 110.748545,25.9788911 L110.748545,25.9788911 Z M110.911225,12.867077 C108.387252,12.867077 106.383009,13.6093125 104.95481,15.0733178 C103.526812,16.5375258 102.802216,18.5636281 102.802216,21.096104 C102.802216,23.5023411 103.509454,25.436044 104.903543,26.8455417 C106.297632,28.2556473 108.194699,28.9699198 110.542065,28.9699198 C112.987524,28.9699198 114.952409,28.2173501 116.38081,26.7330818 C117.808606,25.2502318 118.532596,23.2433794 118.532596,20.7700715 C118.532596,18.3271583 117.853414,16.3780556 116.513417,14.9778788 C115.172613,13.5770942 113.287656,12.867077 110.911225,12.867077 L110.911225,12.867077 Z M97.2707887,15.8975376 L97.2707887,13.2372018 L93.6712251,13.2372018 L93.6712251,28.5992276 L97.2707887,28.5992276 L97.2707887,20.7410143 C97.2707887,19.4046662 97.5725352,18.3070168 98.1679548,17.4778528 C98.7559064,16.6586177 99.5394382,16.2434279 100.495944,16.2434279 C100.820095,16.2434279 101.184007,16.2971249 101.578195,16.4033033 C101.968346,16.5088738 102.250918,16.62336 102.417636,16.7439252 L102.568812,16.8539535 L102.568812,13.2108599 L102.510481,13.1857337 C102.175229,13.0426766 101.701114,12.9705401 101.101052,12.9705401 C100.19662,12.9705401 99.3870512,13.262328 98.6937406,13.8367855 C98.0852016,14.3417407 97.6451966,15.0341291 97.3089359,15.8975376 L97.2707887,15.8975376 L97.2707887,15.8975376 Z M87.2252539,12.8669959 C85.5740243,12.8669959 84.1010168,13.2226124 82.8480118,13.9233087 C81.5925848,14.625626 80.6217481,15.6284443 79.9611351,16.903598 C79.3035497,18.1757123 78.9697111,19.6616017 78.9697111,21.3185112 C78.9697111,22.7699535 79.2934578,24.1020464 79.9332816,25.2758848 C80.573509,26.4517496 81.4797578,27.371692 82.6267983,28.0097755 C83.7722241,28.6470484 85.0960739,28.970244 86.5618152,28.970244 C88.272385,28.970244 89.7328786,28.6267853 90.9039377,27.9497968 L90.9511676,27.9224417 L90.9511676,24.6118647 L90.7999916,24.7227036 C90.2695636,25.1105383 89.6767679,25.4201577 89.0389625,25.6432539 C88.4027718,25.8661475 87.8226919,25.97881 87.3142641,25.97881 C85.9018078,25.97881 84.7680885,25.5350492 83.9449967,24.660496 C83.1200883,23.7845244 82.7018817,22.5547599 82.7018817,21.0070682 C82.7018817,19.4496502 83.1380518,18.1882754 83.9976762,17.2573909 C84.8544748,16.3293432 85.9904143,15.8586326 87.3736042,15.8586326 C88.5567736,15.8586326 89.7096673,16.2608541 90.8003953,17.0551656 L90.9511676,17.165194 L90.9511676,13.67691 L90.9025249,13.6493523 C90.4919881,13.4187588 89.9322937,13.2282861 89.2371666,13.0838106 C88.5452689,12.9397403 87.8685089,12.8669959 87.2252539,12.8669959 L87.2252539,12.8669959 Z M76.4906262,13.2372424 L72.8910625,13.2372424 L72.8910625,28.5992681 L76.4906262,28.5992681 L76.4906262,13.2372424 L76.4906262,13.2372424 Z M74.7275787,6.69288526 C74.1351867,6.69288526 73.6184836,6.89531312 73.1940201,7.2965215 C72.76774,7.69894567 72.5513706,8.2055219 72.5513706,8.80328187 C72.5513706,9.39172082 72.7651162,9.88897606 73.1871576,10.2806608 C73.6065752,10.6711298 74.124893,10.8690998 74.7275787,10.8690998 C75.3300626,10.8690998 75.8503987,10.6711298 76.2748623,10.2812687 C76.7021515,9.88897606 76.9187227,9.39172082 76.9187227,8.80328187 C76.9187227,8.22639285 76.7080048,7.72488237 76.2924221,7.31273194 C75.8774449,6.90139204 75.3508518,6.69288526 74.7275787,6.69288526 L74.7275787,6.69288526 Z M65.7466525,12.1038489 L65.7466525,28.599187 L69.4200885,28.599187 L69.4200885,7.16331222 L64.3360127,7.16331222 L57.873591,23.085206 L51.6023091,7.16331222 L46.3111484,7.16331222 L46.3111484,28.599187 L49.7631691,28.599187 L49.7631691,12.1022279 L49.8818493,12.1022279 L56.504126,28.599187 L59.109238,28.599187 L65.6281741,12.1038489 L65.7466525,12.1038489 L65.7466525,12.1038489 Z" id="path5056" sketch:type="MSShapeGroup"></path>
                <path d="M16.9329254,16.9994828 L0,16.9994828 L0,0 L16.9329254,0 L16.9329254,16.9994828 L16.9329254,16.9994828 Z" id="path5058" sketch:type="MSShapeGroup"></path>
                <path d="M35.6288982,16.9994828 L18.6961747,16.9994828 L18.6961747,0 L35.6288982,0 L35.6288982,16.9994828 L35.6288982,16.9994828 Z" id="path5060" sketch:type="MSShapeGroup"></path>
                <path d="M16.9325217,35.7756297 L0,35.7756297 L0,18.7761469 L16.9325217,18.7761469 L16.9325217,35.7756297 L16.9325217,35.7756297 Z" id="path5062" sketch:type="MSShapeGroup"></path>
                <path d="M35.6288982,35.7756297 L18.6961747,35.7756297 L18.6961747,18.7761469 L35.6288982,18.7761469 L35.6288982,35.7756297 L35.6288982,35.7756297 Z" id="path5064" sketch:type="MSShapeGroup"></path>
            </g>
        </g>
    </g>
</svg>