<?xml version="1.0" encoding="UTF-8" standalone="no"?>
<svg width="65px" height="46px" viewBox="0 0 65 46" version="1.1" xmlns="http://www.w3.org/2000/svg" xmlns:xlink="http://www.w3.org/1999/xlink" xmlns:sketch="http://www.bohemiancoding.com/sketch/ns">
    <!-- Generator: Sketch 3.3.3 (12081) - http://www.bohemiancoding.com/sketch -->
    <title>Salesforce</title>
    <desc>Created with Sketch.</desc>
    <defs></defs>
    <g id="Page-1" stroke="none" stroke-width="1" fill="none" fill-rule="evenodd" sketch:type="MSPage">
        <g id="Desktop-HD" sketch:type="MSArtboardGroup" transform="translate(-398.000000, -831.000000)">
            <g id="Salesforce" sketch:type="MSLayerGroup" transform="translate(398.000000, 831.000000)">
                <g id="layer1" transform="translate(0.063980, 0.048492)" sketch:type="MSShapeGroup">
                    <g id="g3003" transform="translate(32.519219, 22.977864) scale(1, -1) translate(-32.519219, -22.977864) translate(0.019219, 0.477864)" fill="#76829F">
                        <path d="M27.3149173,39.9857504 C29.3762831,42.1295319 32.2461704,43.4590581 35.4201638,43.4590581 C39.639408,43.4590581 43.3205483,41.110804 45.2808489,37.6247736 C46.9843893,38.3845029 48.870029,38.8070795 50.8540025,38.8070795 C58.4639385,38.8070795 64.6334678,32.5956567 64.6334678,24.9338417 C64.6334678,17.2711179 58.4639385,11.0596951 50.8540025,11.0596951 C49.9252954,11.0596951 49.0175296,11.1523893 48.1398103,11.3295989 C46.4135075,8.25614869 43.1238809,6.17961597 39.3480489,6.17961597 C37.7674257,6.17961597 36.2723892,6.54403156 34.9412422,7.19198247 C33.1912665,3.08344662 29.1140599,0.202655053 24.3621747,0.202655053 C19.4136222,0.202655053 15.196199,3.32790495 13.5773349,7.71088846 C12.8698785,7.5609419 12.1369283,7.48278793 11.3848575,7.48278793 C5.49302987,7.48278793 0.716561331,12.2992533 0.716561331,18.2416811 C0.716561331,22.2238983 2.86260333,25.7008411 6.05116468,27.5610872 C5.39469617,29.0687318 5.02958677,30.7326843 5.02958677,32.4820608 C5.02958677,39.3159891 10.5881724,44.8558331 17.4442167,44.8558331 C21.469525,44.8558331 25.0468687,42.9456047 27.3149173,39.9857504" id="path3005"></path>
                    </g>
                    <g id="g3007" transform="translate(11.814529, 21.506134) scale(1, -1) translate(-11.814529, -21.506134) translate(9.083037, 18.325449)" fill="#FFFFFF">
                        <path d="M0.910497243,0.908767055 C0.870435365,0.804258843 0.925065199,0.782448434 0.937812161,0.764273093 C1.0579978,0.677031456 1.18000443,0.614326529 1.30292156,0.544351466 C1.95483758,0.199019985 2.57033372,0.0981468419 3.21405527,0.0981468419 C4.5251713,0.0981468419 5.33915584,0.794262406 5.33915584,1.91477218 L5.33915584,1.93658259 C5.33915584,2.97257704 4.42046412,3.3488066 3.55822323,3.62052795 L3.44623207,3.65687863 C2.79613703,3.86771259 2.23527073,4.049466 2.23527073,4.47658651 L2.23527073,4.49930569 C2.23527073,4.86463004 2.56304974,5.13362509 3.0711072,5.13362509 C3.63561549,5.13362509 4.30574146,4.94641908 4.73731716,4.70832211 C4.73731716,4.70832211 4.86387627,4.62653308 4.91031163,4.74921663 C4.93580556,4.81464786 5.1543249,5.40171137 5.17708733,5.46532507 C5.20167075,5.53439136 5.15796688,5.58528232 5.11335252,5.61254533 C4.62077351,5.91152969 3.93972157,6.11600228 3.23499671,6.11600228 L3.1038851,6.11509351 C1.90384974,6.11509351 1.06619227,5.39171494 1.06619227,4.35481173 L1.06619227,4.33300132 C1.06619227,3.23975455 1.99034697,2.8853354 2.85622985,2.63815076 L2.99553593,2.59543871 C3.62651052,2.40187133 4.17007738,2.23556695 4.17007738,1.79208863 L4.17007738,1.77027822 C4.17007738,1.36496812 3.81680444,1.06325745 3.24683317,1.06325745 C3.02558234,1.06325745 2.31994698,1.06780129 1.55786078,1.54853906 C1.46590056,1.60215632 1.41218122,1.6412333 1.34116244,1.68394535 C1.30383205,1.7075733 1.21005084,1.74846781 1.16907846,1.62487549 L0.910497243,0.908767055 L0.910497243,0.908767055 Z" id="path3009"></path>
                    </g>
                    <g id="g3011" transform="translate(31.008721, 21.506134) scale(1, -1) translate(-31.008721, -21.506134) translate(28.277230, 18.325449)" fill="#FFFFFF">
                        <path d="M0.910497243,0.908767055 C0.870435365,0.804258843 0.925065199,0.782448434 0.937812161,0.764273093 C1.0579978,0.677031456 1.18000443,0.614326529 1.30292156,0.544351466 C1.95483758,0.199019985 2.57033372,0.0981468419 3.21405527,0.0981468419 C4.5251713,0.0981468419 5.33915584,0.794262406 5.33915584,1.91477218 L5.33915584,1.93658259 C5.33915584,2.97257704 4.42046412,3.3488066 3.55822323,3.62052795 L3.44623207,3.65687863 C2.79613703,3.86771259 2.23527073,4.049466 2.23527073,4.47658651 L2.23527073,4.49930569 C2.23527073,4.86463004 2.56304974,5.13362509 3.0711072,5.13362509 C3.63561549,5.13362509 4.30574146,4.94641908 4.73731716,4.70832211 C4.73731716,4.70832211 4.86387627,4.62653308 4.91031163,4.74921663 C4.93580556,4.81464786 5.1543249,5.40171137 5.17708733,5.46532507 C5.20167075,5.53439136 5.15796688,5.58528232 5.11335252,5.61254533 C4.62077351,5.91152969 3.93972157,6.11600228 3.23499671,6.11600228 L3.1038851,6.11509351 C1.90384974,6.11509351 1.06619227,5.39171494 1.06619227,4.35481173 L1.06619227,4.33300132 C1.06619227,3.23975455 1.99034697,2.8853354 2.85622985,2.63815076 L2.99553593,2.59543871 C3.62651052,2.40187133 4.17098787,2.23556695 4.17098787,1.79208863 L4.17098787,1.77027822 C4.17098787,1.36496812 3.81680444,1.06325745 3.24683317,1.06325745 C3.02558234,1.06325745 2.31994698,1.06780129 1.55786078,1.54853906 C1.46590056,1.60215632 1.41127073,1.63941577 1.34207294,1.68394535 C1.31840001,1.69939439 1.20731934,1.74210644 1.16907846,1.62487549 L0.910497243,0.908767055 L0.910497243,0.908767055 Z" id="path3013"></path>
                    </g>
                    <g id="g3015" transform="translate(40.925314, 21.583198) scale(1, -1) translate(-40.925314, -21.583198) translate(37.738574, 17.948130)" fill="#FFFFFF">
                        <path d="M4.55248622,3.63506822 C4.55248622,3.00165758 4.43412158,2.50274447 4.20103428,2.15014285 C3.97067848,1.8011763 3.62195803,1.63123686 3.13575251,1.63123686 C2.64863648,1.63123686 2.30173703,1.80026754 2.07502322,2.15014285 C1.84557791,2.5018357 1.72903427,3.00165758 1.72903427,3.63506822 C1.72903427,4.26757009 1.84557791,4.76557444 2.07502322,5.11454098 C2.30173703,5.45987247 2.64863648,5.62799437 3.13575251,5.62799437 C3.62195803,5.62799437 3.97067848,5.45987247 4.20194478,5.11454098 C4.43412158,4.76557444 4.55248622,4.26757009 4.55248622,3.63506822 M5.6469039,4.80919525 C5.53946523,5.17179331 5.37193374,5.49167931 5.14886191,5.75794806 C4.92579009,6.02512557 4.64353594,6.2395946 4.30847296,6.39590253 C3.97432047,6.5513017 3.57916466,6.63036443 3.13575251,6.63036443 C2.69142985,6.63036443 2.29627405,6.5513017 1.96212156,6.39590253 C1.62705857,6.2395946 1.34480443,6.02512557 1.12082211,5.75794806 C0.898660779,5.49077055 0.731129286,5.17088454 0.622780115,4.80919525 C0.516251937,4.44841473 0.4625326,4.05400983 0.4625326,3.63506822 C0.4625326,3.21612661 0.516251937,2.82081294 0.622780115,2.46094118 C0.731129286,2.0992519 0.897750282,1.77936589 1.1217326,1.51218838 C1.34480443,1.24501087 1.62796907,1.03145061 1.96212156,0.879686509 C2.29718455,0.727922411 2.69142985,0.650677211 3.13575251,0.650677211 C3.57916466,0.650677211 3.97340997,0.727922411 4.30847296,0.879686509 C4.64262544,1.03145061 4.92579009,1.24501087 5.14886191,1.51218838 C5.37193374,1.77845713 5.53946523,2.09834313 5.6469039,2.46094118 C5.75434258,2.82172171 5.80806192,3.21703537 5.80806192,3.63506822 C5.80806192,4.05310106 5.75434258,4.44841473 5.6469039,4.80919525" id="path3017"></path>
                    </g>
                    <g id="g3019" transform="translate(50.551733, 21.600372) scale(1, -1) translate(-50.551733, -21.600372) translate(47.820241, 17.965304)" fill="#FFFFFF">
                        <path d="M4.55248622,1.81753411 C4.51606633,1.92385985 4.41318014,1.8838741 4.41318014,1.8838741 C4.25384312,1.82298671 4.08449063,1.76664315 3.90421218,1.73847138 C3.72120223,1.7102996 3.51998234,1.69575932 3.3041945,1.69575932 C2.7742851,1.69575932 2.35363537,1.85297602 2.05226079,2.16377436 C1.7499757,2.47457269 1.58062321,2.97712087 1.58244421,3.65687863 C1.5842652,4.27574899 1.73358675,4.74103772 2.00218344,5.09545688 C2.26895913,5.44805849 2.6750409,5.62890314 3.21678676,5.62890314 C3.66839339,5.62890314 4.01256135,5.57710342 4.37311826,5.46350753 C4.37311826,5.46350753 4.4596155,5.42624808 4.50058787,5.5389352 C4.59619008,5.80429518 4.66720887,5.99422749 4.76918456,6.28594172 C4.79832047,6.36863952 4.72730169,6.40408144 4.70180777,6.41407787 C4.5597702,6.46951266 4.22470721,6.5594806 3.97158898,6.59764882 C3.73485969,6.6339995 3.45806853,6.65308361 3.15032046,6.65308361 C2.69051935,6.65308361 2.28079559,6.57492964 1.93025416,6.41862171 C1.58062321,6.26322254 1.28380111,6.04875352 1.04889282,5.781576 C0.813984536,5.51439849 0.635527076,5.19451249 0.516251937,4.8328232 C0.397887295,4.47204268 0.337794477,4.07582024 0.337794477,3.65687863 C0.337794477,2.75083787 0.582718236,2.01837163 1.06619227,1.48219907 C1.55057681,0.94420897 2.2780641,0.670670086 3.22680223,0.670670086 C3.78766853,0.670670086 4.36310279,0.784265968 4.77646854,0.946935271 C4.77646854,0.946935271 4.8556818,0.985103487 4.8210829,1.07688896 L4.55248622,1.81753411 L4.55248622,1.81753411 Z" id="path3021"></path>
                    </g>
                    <g id="g3023" transform="translate(55.653331, 21.430798) scale(1, -1) translate(-55.653331, -21.430798) translate(52.466591, 18.250114)" fill="#FFFFFF">
                        <path d="M1.82099449,3.63506822 C1.87289283,3.98676107 1.97031603,4.27938406 2.12054808,4.50748459 C2.34726189,4.85372484 2.69325085,5.04365715 3.17945637,5.04365715 C3.6656619,5.04365715 3.98706743,4.85281607 4.21742323,4.50748459 C4.37038677,4.27938406 4.43685307,3.97403833 4.46325749,3.63506822 L1.82099449,3.63506822 L1.82099449,3.63506822 Z M5.50577683,4.40842898 C5.41290611,4.7583043 5.18255031,5.11181468 5.03140777,5.27357522 C4.79285749,5.52984753 4.5597702,5.70887464 4.3285039,5.80883901 C4.02621881,5.93788394 3.66384091,6.02330804 3.26686411,6.02330804 C2.80433151,6.02330804 2.38459228,5.94606284 2.04406631,5.78611984 C1.70262985,5.62617684 1.41582321,5.40807274 1.19093039,5.13635139 C0.966037575,4.86553881 0.796685088,4.54292651 0.689246413,4.17669338 C0.580897241,3.81227779 0.526267407,3.41514659 0.526267407,2.99620498 C0.526267407,2.56999323 0.582718236,2.17286203 0.694709397,1.81571658 C0.807611055,1.45584482 0.987889509,1.13868512 1.23190277,0.876051441 C1.47500553,0.611600228 1.78821659,0.404401339 2.16334145,0.259907378 C2.53573482,0.116322183 2.98825195,0.0418032845 3.50814588,0.0427120516 C4.57798014,0.0463471198 5.14157793,0.284444088 5.37375473,0.412580243 C5.41472711,0.435299419 5.45387849,0.47528517 5.40471164,0.589789819 L5.16251937,1.26682127 C5.12609948,1.36769442 5.02321329,1.33043497 5.02321329,1.33043497 C4.75825859,1.23228813 4.38131274,1.05598732 3.5026829,1.05780485 C2.92815913,1.05871362 2.50204643,1.22774429 2.23527073,1.4921955 C1.96121106,1.76300809 1.82736797,2.16104806 1.80369504,2.7226661 L5.50850832,2.71903103 C5.50850832,2.71903103 5.60593153,2.72084856 5.615947,2.81536034 C5.61958899,2.85534609 5.74341661,3.57508959 5.50577683,4.40842898 L5.50577683,4.40842898 Z" id="path3025"></path>
                    </g>
                    <g id="g3027" transform="translate(25.983141, 21.430798) scale(1, -1) translate(-25.983141, -21.430798) translate(22.796400, 18.250114)" fill="#FFFFFF">
                        <path d="M1.82099449,3.63506822 C1.87380333,3.98676107 1.97031603,4.27938406 2.12054808,4.50748459 C2.34726189,4.85372484 2.69325085,5.04365715 3.17945637,5.04365715 C3.6656619,5.04365715 3.98706743,4.85281607 4.21833373,4.50748459 C4.37038677,4.27938406 4.43685307,3.97403833 4.46325749,3.63506822 L1.82099449,3.63506822 L1.82099449,3.63506822 Z M5.50486633,4.40842898 C5.41199562,4.7583043 5.18255031,5.11181468 5.03140777,5.27357522 C4.79285749,5.52984753 4.5597702,5.70887464 4.3285039,5.80883901 C4.02621881,5.93788394 3.66384091,6.02330804 3.26686411,6.02330804 C2.80524201,6.02330804 2.38459228,5.94606284 2.04406631,5.78611984 C1.70262985,5.62617684 1.41582321,5.40807274 1.19093039,5.13635139 C0.966037575,4.86553881 0.796685088,4.54292651 0.689246413,4.17669338 C0.581807739,3.81227779 0.526267407,3.41514659 0.526267407,2.99620498 C0.526267407,2.56999323 0.582718236,2.17286203 0.694709397,1.81571658 C0.807611055,1.45584482 0.987889509,1.13868512 1.23190277,0.876051441 C1.47500553,0.611600228 1.78821659,0.404401339 2.16334145,0.259907378 C2.53573482,0.116322183 2.98825195,0.0418032845 3.50814588,0.0427120516 C4.57798014,0.0463471198 5.14157793,0.284444088 5.37375473,0.412580243 C5.41472711,0.435299419 5.45387849,0.47528517 5.40471164,0.589789819 L5.16342987,1.26682127 C5.12609948,1.36769442 5.02321329,1.33043497 5.02321329,1.33043497 C4.75825859,1.23228813 4.38222323,1.05598732 3.5017724,1.05780485 C2.92815913,1.05871362 2.50204643,1.22774429 2.23527073,1.4921955 C1.96121106,1.76300809 1.82736797,2.16104806 1.80369504,2.7226661 L5.50850832,2.71903103 C5.50850832,2.71903103 5.60593153,2.72084856 5.615947,2.81536034 C5.61958899,2.85534609 5.74341661,3.57508959 5.50486633,4.40842898 L5.50486633,4.40842898 Z" id="path3029"></path>
                    </g>
                    <g id="g3031" transform="translate(17.519977, 21.580107) scale(1, -1) translate(-17.519977, -21.580107) translate(14.788486, 17.945039)" fill="#FFFFFF">
                        <path d="M1.82099449,1.81753411 C1.67622543,1.93294753 1.65619449,1.96202807 1.60702763,2.03654697 C1.53418786,2.15014285 1.49685747,2.31190339 1.49685747,2.51728474 C1.49685747,2.84262335 1.60429614,3.07617648 1.82736797,3.23339318 C1.82463648,3.23248441 2.146042,3.51056713 2.90175471,3.5005707 C3.43257461,3.49330056 3.90694367,3.41514659 3.90694367,3.41514659 L3.90694367,1.73392754 L3.90785417,1.73392754 C3.90785417,1.73392754 3.43712709,1.6330544 2.9072177,1.60124755 C2.15332598,1.5558092 1.818263,1.81844288 1.82099449,1.81753411 M3.29508952,4.41569912 C3.14485748,4.42660432 2.95001107,4.43296569 2.71692377,4.43296569 C2.39916024,4.43296569 2.09232267,4.39297994 1.80460554,4.31573474 C1.51506741,4.23848954 1.2546652,4.11762353 1.03068288,3.95768052 C0.80579006,3.79682875 0.624601109,3.5914474 0.493489506,3.34789783 C0.362377903,3.10434826 0.295911604,2.81717787 0.295911604,2.49547433 C0.295911604,2.16831819 0.352362433,1.8838741 0.465264091,1.65122974 C0.57816575,1.41767661 0.741144756,1.22320046 0.948738128,1.07325389 C1.1545105,0.923307328 1.40853924,0.813346514 1.70354034,0.747006519 C1.99398896,0.680666524 2.32358897,0.647042143 2.68414587,0.647042143 C3.06382322,0.647042143 3.44259008,0.677940223 3.80952047,0.74064515 C4.17280887,0.802441309 4.61895252,0.892409248 4.74278014,0.920581026 C4.86569727,0.949661572 5.00227186,0.986921021 5.00227186,0.986921021 C5.09423208,1.0096402 5.0869481,1.10778704 5.0869481,1.10778704 L5.0851271,4.48930925 C5.0851271,5.23086317 4.88663871,5.78066724 4.49603539,6.12145488 C4.10725307,6.46133376 3.5345503,6.63309073 2.79431604,6.63309073 C2.51661438,6.63309073 2.06956023,6.59492252 1.80187404,6.54130526 C1.80187404,6.54130526 0.992441995,6.38499733 0.659200004,6.12508995 C0.659200004,6.12508995 0.586360225,6.0796516 0.626422103,5.97786969 L0.88864531,5.27448399 C0.92142321,5.18360728 1.00974144,5.21450536 1.00974144,5.21450536 C1.00974144,5.21450536 1.03796686,5.22541057 1.07074476,5.24449467 C1.7836641,5.63162944 2.68505637,5.61981547 2.68505637,5.61981547 C3.08567516,5.61981547 3.39342323,5.53984397 3.6010166,5.38080973 C3.80314699,5.22631933 3.90603317,4.9927662 3.90603317,4.50021446 L3.90603317,4.34390652 C3.58735914,4.38934487 3.29508952,4.41569912 3.29508952,4.41569912" id="path3033"></path>
                    </g>
                    <g id="g3035" transform="translate(46.598711, 21.620456) scale(1, -1) translate(-46.598711, -21.620456) translate(44.322468, 17.985388)" fill="#FFFFFF">
                        <path d="M3.64198897,6.36136938 C3.67021439,6.44497595 3.61103207,6.4849617 3.58644864,6.49404937 C3.52362433,6.51858608 3.20859229,6.58492608 2.96548952,6.60037512 C2.50022543,6.6285469 2.24164421,6.55039293 2.01037791,6.44679349 C1.78093261,6.34319404 1.52599338,6.1759809 1.38395581,5.98604859 L1.38395581,6.43588828 C1.38395581,6.49859321 1.33934145,6.5485754 1.27742763,6.5485754 L0.327779008,6.5485754 C0.265865195,6.5485754 0.22125083,6.49859321 0.22125083,6.43588828 L0.22125083,0.920581026 C0.22125083,0.858784867 0.272238676,0.807893912 0.334152488,0.807893912 L1.30747404,0.807893912 C1.36938785,0.807893912 1.4194652,0.858784867 1.4194652,0.920581026 L1.4194652,3.67596274 C1.4194652,4.04583093 1.46043758,4.41479035 1.54238233,4.64652595 C1.62250609,4.87553525 1.73176576,5.05910619 1.86651935,5.19087742 C2.00218344,5.32173987 2.15605747,5.41352535 2.32449946,5.46532507 C2.49658344,5.51803356 2.68687737,5.53530013 2.82163096,5.53530013 C3.01556687,5.53530013 3.22862323,5.48531794 3.22862323,5.48531794 C3.29964201,5.47713904 3.33970389,5.52075986 3.36337682,5.58528232 C3.42711162,5.75431299 3.60739008,6.26049624 3.64198897,6.36136938" id="path3037"></path>
                    </g>
                    <g id="g3039" transform="translate(35.641604, 21.336197) scale(1, -1) translate(-35.641604, -21.336197) translate(31.544366, 15.429211)" fill="#FFFFFF">
                        <path d="M7.28397795,10.9052047 C7.16561331,10.9415553 7.05817463,10.9660921 6.91795806,10.9924463 C6.77592049,11.0178918 6.606568,11.0306145 6.41445308,11.0306145 C5.74432711,11.0306145 5.21623871,10.841591 4.84566633,10.4689965 C4.47691495,10.0982195 4.2265282,9.53387517 4.10087958,8.79141249 L4.05535472,8.54150155 L3.21405527,8.54150155 C3.21405527,8.54150155 3.11207958,8.54513662 3.09022764,8.43426704 L2.95274256,7.66454134 C2.94272709,7.59183998 2.97459449,7.54549286 3.0729282,7.54549286 L3.89146522,7.54549286 L3.06109173,2.91805101 C2.99644643,2.54545652 2.92178565,2.23920202 2.83893041,2.00655766 C2.75789615,1.77754836 2.67868289,1.60579139 2.58034919,1.48038153 C2.48565747,1.36042428 2.39642874,1.27136511 2.24164421,1.21956539 C2.1141746,1.17685334 1.96667405,1.15686046 1.80551603,1.15686046 C1.7162873,1.15686046 1.59701217,1.17140073 1.50869393,1.18957607 C1.4212862,1.20684265 1.37485084,1.22592676 1.30838454,1.25409854 C1.30838454,1.25409854 1.21278233,1.29044922 1.17454144,1.19502868 C1.14449504,1.11596594 0.925975697,0.517088454 0.899571277,0.443478323 C0.874077354,0.369868191 0.910497243,0.312615867 0.956932603,0.295349293 C1.06619227,0.257181077 1.14722653,0.231735599 1.29563758,0.196293684 C1.50140995,0.14812903 1.67531493,0.145402729 1.83829393,0.145402729 C2.1788199,0.145402729 2.49020996,0.193567383 2.74788068,0.286261622 C3.0064619,0.379864629 3.23226521,0.542533932 3.43257461,0.762455559 C3.64836245,1.00055253 3.78402654,1.2495547 3.91331715,1.59034235 C4.04169726,1.92658616 4.15186743,2.344619 4.23927517,2.83171814 L5.07420114,7.54549286 L6.29426744,7.54549286 C6.29426744,7.54549286 6.39715363,7.54185779 6.41809507,7.65363614 L6.55649065,8.42245306 C6.56559562,8.4960632 6.53463872,8.54150155 6.43539452,8.54150155 L5.2508376,8.54150155 C5.25721108,8.56785579 5.31093042,8.9840711 5.44659451,9.3757497 C5.50486633,9.54205408 5.614126,9.67746037 5.70608622,9.77015461 C5.79713595,9.86103131 5.90184313,9.92555377 6.01656578,9.96281322 C6.13401993,10.0009814 6.26786302,10.0191568 6.41445308,10.0191568 C6.52553374,10.0191568 6.63570391,10.006434 6.71855916,9.98916747 C6.83328181,9.96463076 6.87789618,9.95190802 6.90794259,9.94282035 C7.02903872,9.90646966 7.04542767,9.94191158 7.0691006,10.0000727 L7.35226524,10.7761597 C7.38140115,10.8597663 7.30947187,10.8952082 7.28397795,10.9052047" id="path3041"></path>
                    </g>
                    <g id="g3043" transform="translate(21.367284, 20.700148) scale(1, -1) translate(-21.367284, -20.700148) translate(20.456787, 16.156313)" fill="#FFFFFF">
                        <path d="M1.82099449,0.908767055 C1.82099449,0.846970895 1.77638012,0.796988707 1.71446631,0.796988707 L0.732039784,0.796988707 C0.670125971,0.796988707 0.626422103,0.846970895 0.626422103,0.908767055 L0.626422103,8.80050016 C0.626422103,8.86229632 0.670125971,8.91227851 0.732039784,8.91227851 L1.71446631,8.91227851 C1.77638012,8.91227851 1.82099449,8.86229632 1.82099449,8.80050016 L1.82099449,0.908767055 L1.82099449,0.908767055 Z" id="path3045"></path>
                    </g>
                </g>
            </g>
        </g>
    </g>
</svg>